<?xml version="1.0" encoding="UTF-8"?>
<svg width="16px" height="14px" viewBox="0 0 16 14" version="1.1" xmlns="http://www.w3.org/2000/svg" xmlns:xlink="http://www.w3.org/1999/xlink">
    <title>4C45F269-F0B0-4236-8A10-57D0C9512C7B@1.00x</title>
    <defs>
        <filter id="filter-1">
            <feColorMatrix in="SourceGraphic" type="matrix" values="0 0 0 0 0.121569 0 0 0 0 0.058824 0 0 0 0 0.066667 0 0 0 1.000000 0"></feColorMatrix>
        </filter>
    </defs>
    <g id="Symbols" stroke="none" stroke-width="1" fill="none" fill-rule="evenodd">
        <g id="Icon/Hide-Password">
            <g filter="url(#filter-1)">
                <g>
                    <path d="M13.359,10.238 C15.06,8.72 16,7 16,7 C16,7 13,1.5 8,1.5 C7.03959254,1.50330703 6.09005417,1.7034248 5.21,2.088 L5.98,2.859 C6.62743511,2.62315438 7.31094807,2.50167856 8,2.5 C10.12,2.5 11.879,3.668 13.168,4.957 C13.7883541,5.58069072 14.3444799,6.26512749 14.828,7 C14.77,7.087 14.706,7.183 14.633,7.288 C14.298,7.768 13.803,8.408 13.168,9.043 C13.003,9.208 12.831,9.371 12.651,9.529 L13.359,10.238 L13.359,10.238 Z" id="Icon-Path" fill="#000000" fill-rule="nonzero"></path>
                    <path d="M11.297,8.176 C11.7524992,6.90198079 11.432895,5.47953363 10.4761807,4.52281933 C9.51946637,3.56610503 8.09701921,3.24650076 6.823,3.702 L7.646,4.525 C8.42518973,4.41347241 9.21140321,4.6754256 9.76798881,5.23201119 C10.3245744,5.78859679 10.5865276,6.57481027 10.475,7.354 L11.297,8.176 Z M8.354,9.475 L9.176,10.297 C7.90198079,10.7524992 6.47953363,10.432895 5.52281933,9.47618067 C4.56610503,8.51946637 4.24650076,7.09701921 4.702,5.823 L5.525,6.646 C5.41347241,7.42518973 5.6754256,8.21140321 6.23201119,8.76798881 C6.78859679,9.3245744 7.57481027,9.58652759 8.354,9.475 L8.354,9.475 Z" id="Icon-Shape" fill="#000000" fill-rule="nonzero"></path>
                    <path d="M3.35,4.47 C3.17,4.63 2.997,4.792 2.832,4.957 C2.21164592,5.58069072 1.65552011,6.26512749 1.172,7 L1.367,7.288 C1.702,7.768 2.197,8.408 2.832,9.043 C4.121,10.332 5.881,11.5 8,11.5 C8.716,11.5 9.39,11.367 10.02,11.14 L10.79,11.912 C9.90993715,12.2965481 8.96040447,12.4966647 8,12.5 C3,12.5 0,7 0,7 C0,7 0.939,5.279 2.641,3.762 L3.349,4.471 L3.35,4.47 Z" id="Icon-Path" fill="#000000" fill-rule="nonzero"></path>
                    <polygon id="Icon-Path" fill="#000000" fill-rule="nonzero" points="13.646 13.354 1.646 1.354 2.354 0.646 14.354 12.646"></polygon>
                </g>
            </g>
        </g>
    </g>
</svg>