<?xml version="1.0" encoding="UTF-8"?>
<svg width="82px" height="15px" viewBox="0 0 82 15" version="1.1" xmlns="http://www.w3.org/2000/svg" xmlns:xlink="http://www.w3.org/1999/xlink">
    <title>ri-star-fill</title>
    <g id="Scenario-6" stroke="none" stroke-width="1" fill="none" fill-rule="evenodd">
        <g id="Desktop-/-Scenario-6-/-Screen-2" transform="translate(-825.000000, -567.000000)">
            <g id="Group-11-Copy" transform="translate(824.000000, 392.000000)">
                <g id="Icon" transform="translate(1.000000, 175.000000)">
                    <polygon id="Icon-Path" fill="#F9C646" points="7.05376344 12.1733333 2.90791398 14.8053333 3.83372043 9.52 0.345046595 5.86133333 5.06342652 5.22666667 7.05376344 0.333333333 9.04410036 5.22666667 13.7624803 5.86133333 10.2738065 9.52 11.1996129 14.8053333"></polygon>
                    <polygon id="Icon-Path-Copy" fill="#F9C646" points="40.9423943 12.1733333 36.7965448 14.8053333 37.7223513 9.52 34.2336774 5.86133333 38.9520573 5.22666667 40.9423943 0.333333333 42.9327312 5.22666667 47.6511111 5.86133333 44.1624373 9.52 45.0882437 14.8053333"></polygon>
                    <polygon id="Icon-Path-Copy-3" fill="#F9C646" points="57.8485018 12.1733333 53.7026523 14.8053333 54.6284588 9.52 51.1397849 5.86133333 55.8581649 5.22666667 57.8485018 0.333333333 59.8388387 5.22666667 64.5572186 5.86133333 61.0685448 9.52 61.9943513 14.8053333"></polygon>
                    <polygon id="Icon-Path-Copy-4" fill="#C6CDCF" points="74.60119 12.1733333 70.4553405 14.8053333 71.381147 9.52 67.8924731 5.86133333 72.610853 5.22666667 74.60119 0.333333333 76.5915269 5.22666667 81.3099068 5.86133333 77.821233 9.52 78.7470394 14.8053333"></polygon>
                    <polygon id="Icon-Path-Copy-2" fill="#F9C646" points="23.9980789 11.84 19.8522294 14.472 20.7780358 9.18666667 17.289362 5.528 22.0077419 4.89333333 23.9980789 -9.76996262e-15 25.9884158 4.89333333 30.7067957 5.528 27.2181219 9.18666667 28.1439283 14.472"></polygon>
                </g>
            </g>
        </g>
    </g>
</svg>