<?xml version="1.0" encoding="UTF-8"?>
<svg width="16px" height="15px" viewBox="0 0 16 15" version="1.1" xmlns="http://www.w3.org/2000/svg" xmlns:xlink="http://www.w3.org/1999/xlink">
    <title>Icon/Support</title>
    <g id="Symbols" stroke="none" stroke-width="1" fill="none" fill-rule="evenodd">
        <g id="Desktop/Hompage/Nav" transform="translate(-1170.000000, -5.000000)">
            <g id="Icon/Support" transform="translate(1171.000000, 6.000000)">
                <g id="Group-4">
                    <path d="M5,5 C5,5.55228475 4.55228475,6 4,6 C3.44771525,6 3,5.55228475 3,5 C3,4.44771525 3.44771525,4 4,4 C4.55228475,4 5,4.44771525 5,5 Z M8,5 C8,5.55228475 7.55228475,6 7,6 C6.44771525,6 6,5.55228475 6,5 C6,4.44771525 6.44771525,4 7,4 C7.55228475,4 8,4.44771525 8,5 Z M11,5 C11,5.55228475 10.5522847,6 10,6 C9.44771525,6 9,5.55228475 9,5 C9,4.44771525 9.44771525,4 10,4 C10.5522847,4 11,4.44771525 11,5 Z" id="Icon-Shape" fill="#FFFFFF" fill-rule="nonzero"></path>
                    <path d="M3.68684896,9.9495343 L2,9.9495343 C0.8954305,9.9495343 9.77010983e-16,9.0541038 0,7.9495343 L0,2 C-1.3527075e-16,0.8954305 0.8954305,2.02906125e-16 2,0 L12,0 C13.1045695,-2.02906125e-16 14,0.8954305 14,2 L14,7.9495343 C14,9.0541038 13.1045695,9.9495343 12,9.9495343 L10.2666667,9.9495343 L10.2666667,9.9495343 L6.84140625,13 L3.68684896,9.9495343 Z" id="Path-2" stroke="#FFFFFF" stroke-linecap="round"></path>
                </g>
            </g>
        </g>
    </g>
</svg>