<?xml version="1.0" encoding="UTF-8"?>
<svg width="28px" height="28px" viewBox="0 0 28 28" version="1.1" xmlns="http://www.w3.org/2000/svg" xmlns:xlink="http://www.w3.org/1999/xlink">
    <title>27BB4C43-AE7A-455B-A6FA-2AF76C82E42C@1.00x</title>
    <g id="Symbols" stroke="none" stroke-width="1" fill="none" fill-rule="evenodd">
        <g id="Icon/?" fill="#1F0F11" fill-rule="nonzero">
            <g id="Group">
                <path d="M14,0 C6.26875,0 0,6.26875 0,14 C0,21.73125 6.26875,28 14,28 C21.73125,28 28,21.73125 28,14 C28,6.26875 21.73125,0 14,0 Z M14,25.625 C7.58125,25.625 2.375,20.41875 2.375,14 C2.375,7.58125 7.58125,2.375 14,2.375 C20.41875,2.375 25.625,7.58125 25.625,14 C25.625,20.41875 20.41875,25.625 14,25.625 Z" id="Icon-Shape"></path>
                <path d="M17.4875,7.896875 C16.55,7.075 15.3125,6.625 14,6.625 C12.6875,6.625 11.45,7.078125 10.5125,7.896875 C9.5375,8.75 9,9.896875 9,11.125 L9,11.3625 C9,11.5 9.1125,11.6125 9.25,11.6125 L10.75,11.6125 C10.8875,11.6125 11,11.5 11,11.3625 L11,11.125 C11,9.746875 12.346875,8.625 14,8.625 C15.653125,8.625 17,9.746875 17,11.125 C17,12.096875 16.3125,12.9875 15.246875,13.396875 C14.584375,13.65 14.021875,14.09375 13.61875,14.675 C13.209375,15.26875 12.996875,15.98125 12.996875,16.703125 L12.996875,17.375 C12.996875,17.5125 13.109375,17.625 13.246875,17.625 L14.746875,17.625 C14.884375,17.625 14.996875,17.5125 14.996875,17.375 L14.996875,16.665625 C15.0001815,16.0447747 15.3833242,15.4892797 15.9625,15.265625 C17.80625,14.55625 18.9968886,12.93125 18.9968886,11.125 C19,9.896875 18.4625,8.75 17.4875,7.896875 L17.4875,7.896875 Z M12.75,20.875 C12.75,21.5653559 13.3096441,22.125 14,22.125 C14.6903559,22.125 15.25,21.5653559 15.25,20.875 C15.25,20.1846441 14.6903559,19.625 14,19.625 C13.3096441,19.625 12.75,20.1846441 12.75,20.875 Z" id="Icon-Shape"></path>
            </g>
        </g>
    </g>
</svg>