<?xml version="1.0" encoding="UTF-8"?>
<svg width="158px" height="44px" viewBox="0 0 158 44" version="1.1" xmlns="http://www.w3.org/2000/svg" xmlns:xlink="http://www.w3.org/1999/xlink">
    <title>logo/white/v2</title>
    <g id="Symbols" stroke="none" stroke-width="1" fill="none" fill-rule="evenodd">
        <g id="Desktop/Nav/Sign-Out-Nav" transform="translate(0.000000, 2.000000)">
            <g id="Group-2" transform="translate(0.000000, -1.000000)">
                <g id="logo/dark/v2">
                    <polygon id="Path-9" stroke="#EC7E00" stroke-width="1" fill="#EC7E00" fill-rule="evenodd" transform="translate(142.902439, 12.485714) scale(-1, 1) translate(-142.902439, -12.485714) " points="143.219098 19.0792928 148.269924 24.9714286 149.404896 19.0792928 156.731707 19.0792928 156.731707 -1.94066985e-14 129.073171 -1.94066985e-14 129.073171 19.0792928"></polygon>
                    <path d="M1.85443902,38.1142857 L3.37170732,34.5814857 L8.93502439,34.5814857 L10.4522927,38.1142857 L12.1802927,38.1142857 L6.74341463,25.4971429 L5.64760976,25.4971429 L0.210731707,38.1142857 L1.85443902,38.1142857 Z M8.36604878,33.2146286 L3.94068293,33.2146286 L6.15336585,28.0205714 L8.36604878,33.2146286 Z M15.2569756,38.1142857 L15.2569756,34.0137143 C15.2569756,32.8150857 16.5635122,31.9108571 17.5960976,31.9108571 C18.6919024,31.9108571 19.260878,32.5206857 19.260878,33.8875429 L19.260878,38.1142857 L20.7992195,38.1142857 L20.7992195,33.8034286 C20.7992195,32.016 20.0405854,30.6701714 18.1018537,30.6701714 C16.9006829,30.6701714 15.678439,31.3851429 15.1937561,32.1842286 L15.0883902,30.9435429 L13.7186341,30.9435429 L13.7186341,38.1142857 L15.2569756,38.1142857 Z M24.9927805,42.2148571 L29.9660488,30.9435429 L28.4487805,30.9435429 L26.172878,36.3478857 L23.8759024,30.9435429 L22.3586341,30.9435429 L25.4142439,37.7778286 L23.454439,42.2148571 L24.9927805,42.2148571 Z M35.8243902,38.1142857 L38.8167805,29.4715429 C38.88,29.3033143 39.006439,28.8196571 39.0275122,28.7776 C39.0485854,28.8406857 39.1750244,29.3033143 39.2382439,29.4715429 L42.2306341,38.1142857 L43.2842927,38.1142857 L47.646439,25.4971429 L46.0027317,25.4971429 L42.9681951,34.8128 C42.8839024,35.0441143 42.7996098,35.5908571 42.7996098,35.5908571 C42.7996098,35.5908571 42.6731707,35.0441143 42.588878,34.8128 L39.5964878,25.4971429 L38.5428293,25.4971429 L35.550439,34.8128 C35.4661463,35.0441143 35.3397073,35.5277714 35.3397073,35.5908571 C35.3186341,35.5277714 35.2343415,35.0230857 35.171122,34.8128 L32.1365854,25.4971429 L30.4085854,25.4971429 L34.7707317,38.1142857 L35.8243902,38.1142857 Z M52.5354146,38.3876571 C53.5890732,38.3876571 54.7902439,38.0301714 55.4013659,37.3993143 L55.4013659,36.1796571 C54.8745366,36.7474286 53.7787317,37.1890286 52.9779512,37.1890286 C50.6177561,37.1890286 50.1330732,35.4857143 50.2595122,34.3291429 L55.422439,34.3291429 C55.4856585,34.0768 55.5278049,33.8034286 55.5278049,33.5510857 C55.5278049,32.016 54.2001951,30.6701714 52.3246829,30.6701714 C50.364878,30.6701714 48.7422439,32.1842286 48.7422439,34.5184 C48.7422439,36.7474286 50.2173659,38.3876571 52.5354146,38.3876571 Z M54.0105366,33.3197714 L50.3859512,33.3197714 C50.6599024,32.2893714 51.4606829,31.7846857 52.3457561,31.7846857 C53.4626341,31.7846857 54.0316098,32.4576 54.0316098,33.1515429 C54.0316098,33.2356571 54.0105366,33.3197714 54.0105366,33.3197714 Z M61.0279024,38.3876571 C61.9972683,38.3876571 63.198439,37.9250286 63.809561,36.9787429 L63.8938537,38.1142857 L65.2636098,38.1142857 L65.2636098,30.9435429 L63.8938537,30.9435429 L63.809561,32.0790857 C63.198439,31.1328 61.955122,30.6701714 61.0279024,30.6701714 C59.1102439,30.6701714 57.5297561,32.2683429 57.5297561,34.5184 C57.5297561,36.8105143 59.1102439,38.3876571 61.0279024,38.3876571 Z M61.3861463,37.2100571 C60.227122,37.2100571 59.0680976,36.3058286 59.0680976,34.5394286 C59.0680976,32.7730286 60.227122,31.8477714 61.3861463,31.8477714 C62.460878,31.8477714 63.809561,32.6468571 63.809561,34.5394286 C63.809561,36.4109714 62.460878,37.2100571 61.3861463,37.2100571 Z M69.4571707,38.1142857 L69.4571707,25.4971429 L67.9188293,25.4971429 L67.9188293,38.1142857 L69.4571707,38.1142857 Z M74.5147317,38.1142857 L74.5147317,31.9529143 L75.9477073,31.9529143 L75.9477073,30.9435429 L74.5147317,30.9435429 L74.5147317,28.5252571 L72.9763902,28.5252571 L72.9763902,30.9435429 L71.5223415,30.9435429 L71.5223415,31.9529143 L72.9763902,31.9529143 L72.9763902,38.1142857 L74.5147317,38.1142857 Z M79.5512195,38.1142857 L79.5512195,34.0137143 C79.5512195,32.8150857 80.8577561,31.9108571 81.8903415,31.9108571 C82.9861463,31.9108571 83.555122,32.5206857 83.555122,33.8875429 L83.555122,38.1142857 L85.0934634,38.1142857 L85.0934634,33.8034286 C85.0934634,32.016 84.3348293,30.6701714 82.3960976,30.6701714 C81.1949268,30.6701714 80.0359024,31.3851429 79.5512195,32.1842286 L79.5512195,25.4971429 L78.012878,25.4971429 L78.012878,38.1142857 L79.5512195,38.1142857 Z M88.2755122,38.1142857 L89.7927805,34.5814857 L95.3560976,34.5814857 L96.8733659,38.1142857 L98.6013659,38.1142857 L93.1644878,25.4971429 L92.0686829,25.4971429 L86.6318049,38.1142857 L88.2755122,38.1142857 Z M94.787122,33.2146286 L90.3617561,33.2146286 L92.574439,28.0205714 L94.787122,33.2146286 Z M103.237463,38.3876571 C104.206829,38.3876571 105.408,37.9250286 106.019122,36.9787429 L106.103415,38.1142857 L107.473171,38.1142857 L107.473171,25.4971429 L105.934829,25.4971429 L105.934829,31.9739429 C105.302634,31.0697143 104.164683,30.6701714 103.237463,30.6701714 C101.319805,30.6701714 99.7393171,32.2683429 99.7393171,34.5184 C99.7393171,36.8105143 101.319805,38.3876571 103.237463,38.3876571 Z M103.595707,37.2100571 C102.436683,37.2100571 101.277659,36.3058286 101.277659,34.5394286 C101.277659,32.7730286 102.436683,31.8477714 103.595707,31.8477714 C104.670439,31.8477714 106.019122,32.6468571 106.019122,34.5394286 C106.019122,36.4109714 104.670439,37.2100571 103.595707,37.2100571 Z M113.415805,38.1773714 L116.64,30.9435429 L115.122732,30.9435429 L112.846829,36.3478857 L110.549854,30.9435429 L109.032585,30.9435429 L112.25678,38.1773714 L113.415805,38.1773714 Z M119.737756,28.5042286 L119.737756,26.8219429 L118.199415,26.8219429 L118.199415,28.5042286 L119.737756,28.5042286 Z M119.737756,38.1142857 L119.737756,30.9435429 L118.199415,30.9435429 L118.199415,38.1142857 L119.737756,38.1142857 Z M124.500293,38.3876571 C126.249366,38.3876571 127.239805,37.4413714 127.239805,36.0324571 C127.239805,34.9179429 126.481171,34.0978286 124.774244,33.6982857 C123.910244,33.488 123.446634,33.2146286 123.446634,32.6678857 C123.446634,32.1421714 123.783805,31.7636571 124.668878,31.7636571 C125.385366,31.7636571 126.144,32.0790857 126.691902,32.4155429 L126.965854,31.3430857 C126.860488,31.28 125.848976,30.6701714 124.668878,30.6701714 C122.835512,30.6701714 122.097951,31.7216 122.097951,32.8571429 C122.097951,33.8454857 122.730146,34.6866286 124.310634,35.0651429 C125.490732,35.3385143 125.891122,35.696 125.891122,36.2217143 C125.891122,36.9156571 125.364293,37.2521143 124.521366,37.2521143 C123.446634,37.2521143 122.540488,36.7264 122.055805,36.432 L121.76078,37.5885714 C121.908293,37.6726857 123.004098,38.3876571 124.500293,38.3876571 Z M133.098146,38.4297143 C135.437268,38.4297143 137.249561,36.6422857 137.249561,34.5184 C137.249561,32.3945143 135.437268,30.6281143 133.098146,30.6281143 C130.759024,30.6281143 128.946732,32.3945143 128.946732,34.5184 C128.946732,36.6422857 130.759024,38.4297143 133.098146,38.4297143 Z M133.098146,37.2310857 C131.601951,37.2310857 130.485073,36.0955429 130.485073,34.5184 C130.485073,32.9412571 131.601951,31.8267429 133.098146,31.8267429 C134.615415,31.8267429 135.71122,32.9412571 135.71122,34.5184 C135.71122,36.0955429 134.615415,37.2310857 133.098146,37.2310857 Z M140.937366,38.1142857 L140.937366,33.9506286 C140.937366,32.752 142.307122,31.9739429 143.676878,32.2262857 L143.676878,30.6701714 C142.454634,30.6701714 141.358829,31.3851429 140.874146,32.1842286 L140.76878,30.9435429 L139.399024,30.9435429 L139.399024,38.1142857 L140.937366,38.1142857 Z" id="AnyWealthAdvisor" fill="#414141" fill-rule="nonzero"></path>
                </g>
            </g>
        </g>
    </g>
</svg>