<?xml version="1.0" encoding="UTF-8"?>
<svg width="192px" height="37px" viewBox="0 0 192 37" version="1.1" xmlns="http://www.w3.org/2000/svg" xmlns:xlink="http://www.w3.org/1999/xlink">
    <title>logo/white/v2</title>
    <g id="Symbols" stroke="none" stroke-width="1" fill="none" fill-rule="evenodd">
        <g id="Desktop/Nav/Sign-Out-Nav" transform="translate(0.000000, -1.000000)">
            <g id="Group-2" transform="translate(0.000000, -1.000000)">
                <g id="logo/dark/v2">
                    <path d="M2.57268874,32.7586207 L4.08325828,28.6546207 L10.8336159,28.6546207 L12.3677881,32.7586207 L14.9168742,32.7586207 L8.78018543,16.5077241 L6.18389404,16.5077241 L0.023602649,32.7586207 L2.57268874,32.7586207 Z M10.0547285,26.5318621 L4.8621457,26.5318621 L7.45843709,19.5267586 L10.0547285,26.5318621 Z M18.9529272,32.7586207 L18.9529272,26.8856552 C18.9529272,24.5977931 20.6995232,23.7958621 22.1392848,23.7958621 C23.5554437,23.7958621 24.6411656,24.8336552 24.6411656,26.6262069 L24.6411656,32.7586207 L26.9542252,32.7586207 L26.9542252,26.4611034 C26.9778278,23.3241379 25.3256424,21.508 22.5405298,21.508 C21.3603974,21.508 19.5901987,22.0976552 18.9529272,23.442069 L18.9529272,21.7438621 L16.6398675,21.7438621 L16.6398675,32.7586207 L18.9529272,32.7586207 Z M33.350543,38.1126897 L40.1953113,21.7438621 L37.6934305,21.7438621 L34.5306755,29.4093793 L31.3679205,21.7438621 L28.8660397,21.7438621 L33.2561325,32.2868966 L30.8958675,38.1126897 L33.350543,38.1126897 Z M44.113351,32.7586207 L45.5531126,20.9655172 L50.4388609,30.966069 L52.515894,30.966069 L57.3544371,20.9655172 L58.7941987,32.7586207 L61.2016689,32.7586207 L59.2190464,16.5077241 L57.0476026,16.5077241 L51.4537748,28.2064828 L45.859947,16.5077241 L43.6885033,16.5077241 L41.7058808,32.7586207 L44.113351,32.7586207 Z M68.990543,32.9944828 C70.4775099,32.9944828 72.0588874,32.3576552 72.7905695,31.1075862 L72.7905695,32.7586207 L75.1036291,32.7586207 L75.1036291,21.7438621 L72.7905695,21.7438621 L72.7905695,23.3713103 C72.0588874,22.1212414 70.5247152,21.508 68.9669404,21.508 C65.9930066,21.508 63.5147285,23.7251034 63.5147285,27.2394483 C63.5147285,30.7302069 65.9930066,32.9944828 68.990543,32.9944828 Z M69.2501722,30.8009655 C67.3619603,30.8009655 65.8277881,29.2678621 65.8277881,27.2158621 C65.8277881,25.1402759 67.3619603,23.7015172 69.2501722,23.7015172 C70.9495629,23.7015172 72.7669669,24.9987586 72.7669669,27.2158621 C72.7669669,29.4329655 71.1147815,30.8009655 69.2501722,30.8009655 Z M80.8862781,32.7586207 L80.8862781,28.7961379 C80.8862781,25.8242759 81.8303841,23.7251034 83.8366093,23.7251034 C84.2850596,23.7251034 84.8515232,23.8194483 85.4651921,24.1024828 L85.8664371,21.9089655 C85.5123974,21.6966897 84.7335099,21.508 83.9782252,21.508 C82.5620662,21.508 81.4527417,22.2863448 80.8862781,24.2204138 L80.8862781,21.7438621 L78.5496159,21.7438621 L78.5496159,32.7586207 L80.8862781,32.7586207 Z M90.1385166,32.7586207 L90.1385166,27.5224828 L94.953457,32.7586207 L97.974596,32.7586207 L92.2391523,26.5082759 L96.8888742,21.7438621 L93.7497219,21.7438621 L90.1385166,25.494069 L90.1385166,15.7765517 L87.825457,15.7765517 L87.825457,32.7586207 L90.1385166,32.7586207 Z M104.465325,32.9944828 C106.56596,32.9944828 108.548583,32.0510345 109.516291,30.2113103 L107.675285,29.2914483 C107.061616,30.3056552 105.857881,30.8481379 104.583338,30.8481379 C102.789536,30.8481379 101.467788,29.9754483 101.160954,28.1828966 L109.941139,28.1828966 C109.964742,27.8291034 109.988344,27.4988966 109.988344,27.1922759 C109.988344,23.7251034 107.604477,21.508 104.465325,21.508 C101.326172,21.508 98.7770861,23.7251034 98.7770861,27.2158621 C98.7770861,30.7066207 101.278967,32.9944828 104.465325,32.9944828 Z M107.675285,26.3195862 L101.184556,26.3195862 C101.514993,24.5034483 102.789536,23.6543448 104.488927,23.6543448 C106.188318,23.6543448 107.462861,24.5977931 107.675285,26.3195862 Z M115.912609,32.7586207 L115.912609,23.677931 L118.272874,23.677931 L118.272874,21.7438621 L115.912609,21.7438621 L115.912609,17.6162759 L113.59955,17.6162759 L113.59955,21.7438621 L111.616927,21.7438621 L111.616927,23.677931 L113.59955,23.677931 L113.59955,32.7586207 L115.912609,32.7586207 Z M121.62445,19.2201379 C122.497748,19.2201379 123.205828,18.5833103 123.205828,17.7342069 C123.205828,16.8851034 122.497748,16.2482759 121.62445,16.2482759 C120.774755,16.2482759 120.043073,16.8851034 120.043073,17.7342069 C120.043073,18.5833103 120.774755,19.2201379 121.62445,19.2201379 Z M122.78098,32.7586207 L122.78098,21.7438621 L120.467921,21.7438621 L120.467921,32.7586207 L122.78098,32.7586207 Z M128.563629,32.7586207 L128.563629,26.8856552 C128.563629,24.5977931 130.310225,23.7958621 131.749987,23.7958621 C133.166146,23.7958621 134.251868,24.8336552 134.251868,26.6262069 L134.251868,32.7586207 L136.564927,32.7586207 L136.564927,26.4611034 C136.58853,23.3241379 134.936344,21.508 132.151232,21.508 C130.971099,21.508 129.200901,22.0976552 128.563629,23.442069 L128.563629,21.7438621 L126.25057,21.7438621 L126.25057,32.7586207 L128.563629,32.7586207 Z M144.707841,38.2542069 C148.413457,38.2542069 150.773722,36.2257931 150.773722,31.1075862 L150.773722,21.7438621 L148.460662,21.7438621 L148.460662,23.3477241 C147.705377,22.1212414 146.171205,21.508 144.637033,21.508 C141.663099,21.508 139.184821,23.7251034 139.184821,27.2394483 C139.184821,30.7302069 141.663099,32.9944828 144.660636,32.9944828 C146.124,32.9944828 147.705377,32.3576552 148.460662,31.1547586 L148.460662,31.2962759 C148.460662,34.7870345 147.020901,36.1078621 144.707841,36.1078621 C143.504106,36.1078621 142.229563,35.4238621 141.615894,34.2445517 L139.656874,35.2115862 C140.695391,37.1692414 142.630808,38.2542069 144.707841,38.2542069 Z M144.920265,30.8009655 C143.032053,30.8009655 141.497881,29.2678621 141.497881,27.2158621 C141.497881,25.1402759 143.032053,23.7015172 144.920265,23.7015172 C146.619656,23.7015172 148.43706,24.9987586 148.43706,27.2158621 C148.43706,29.4329655 146.784874,30.8009655 144.920265,30.8009655 Z" id="AnyMarketing" fill="#444444" fill-rule="nonzero"></path>
                    <g id="Group-3" stroke-width="1" fill-rule="evenodd" transform="translate(153.417219, 0.000000)">
                        <g id="Group-2" transform="translate(17.701987, 16.379310) rotate(-15.000000) translate(-17.701987, -16.379310) translate(3.933775, 3.931034)" fill="#9B0000">
                            <path d="M9.17880795,5.0977953 L23.6903314,0.758054362 C24.748592,0.441576434 25.8630378,1.0429101 26.1795157,2.10117071 C26.2323625,2.27788363 26.2605105,2.46105753 26.2631591,2.6454843 L26.5261692,20.958812 C26.542031,22.0632676 25.6595514,22.9714644 24.5550958,22.9873262 C24.3642396,22.9900672 24.1739738,22.9654724 23.990088,22.9142903 L9.17880795,18.791768 L9.17880795,18.791768 L9.17880795,5.0977953 Z" id="Rectangle" transform="translate(17.871676, 11.815428) rotate(-360.000000) translate(-17.871676, -11.815428) "></path>
                            <path d="M7.86754967,5.24137931 L7.88748725,18.6334722 L8.65063775,24.6814049 L6.35966125,24.6814049 C5.63944793,24.6814049 4.97485519,24.2941725 4.61971721,23.6676071 L1.63986381,18.4124966 C0.702458418,18.2419463 3.89688694e-13,17.4220585 3.89400801e-13,16.4449933 L3.91655036e-13,7.24137931 C3.91790307e-13,6.13680981 0.8954305,5.24137931 2,5.24137931 L7.86754967,5.24137931 Z" id="Combined-Shape"></path>
                        </g>
                        <g id="Group" transform="translate(36.059603, 10.482759) rotate(-15.000000) translate(-36.059603, -10.482759) translate(32.781457, 3.931034)" stroke="#9B0000" stroke-linecap="round" stroke-linejoin="round">
                            <line x1="0.134135063" y1="6.43842574" x2="5.53699296" y2="6.43842574" id="Path-4"></line>
                            <line x1="0" y1="3.81773609" x2="3.82039746" y2="9.31055999e-15" id="Path-4-Copy"></line>
                            <line x1="0" y1="9.0591154" x2="3.82039746" y2="12.8768515" id="Path-4-Copy-2"></line>
                        </g>
                    </g>
                </g>
            </g>
        </g>
    </g>
</svg>