<?xml version="1.0" encoding="UTF-8"?>
<svg width="238px" height="42px" viewBox="0 0 238 42" version="1.1" xmlns="http://www.w3.org/2000/svg" xmlns:xlink="http://www.w3.org/1999/xlink">
    <title>Group 2</title>
    <defs>
        <linearGradient x1="60.1573701%" y1="74.7553676%" x2="33.5579439%" y2="-14.8284001%" id="linearGradient-1">
            <stop stop-color="#D6FFA1" offset="0%"></stop>
            <stop stop-color="#93E2A7" offset="32.64%"></stop>
            <stop stop-color="#00A3B5" offset="100%"></stop>
        </linearGradient>
        <linearGradient x1="-32.1721676%" y1="-63.0932966%" x2="80.1668869%" y2="90.268788%" id="linearGradient-2">
            <stop stop-color="#FF177B" offset="0%"></stop>
            <stop stop-color="#FFA976" offset="67.21%"></stop>
            <stop stop-color="#FFEC73" offset="100%"></stop>
        </linearGradient>
        <linearGradient x1="50.226735%" y1="74.6634124%" x2="36.1559852%" y2="-29.3364075%" id="linearGradient-3">
            <stop stop-color="#63FFD4" offset="0%"></stop>
            <stop stop-color="#32A0BA" offset="48.54%"></stop>
            <stop stop-color="#1262A9" offset="83.49%"></stop>
            <stop stop-color="#064AA2" offset="100%"></stop>
        </linearGradient>
        <linearGradient x1="119.507988%" y1="41.3637834%" x2="-23.112411%" y2="56.575581%" id="linearGradient-4">
            <stop stop-color="#FF4521" offset="0%"></stop>
            <stop stop-color="#D43E65" offset="34.11%"></stop>
            <stop stop-color="#9F36B9" offset="79.35%"></stop>
            <stop stop-color="#8A33DB" offset="100%"></stop>
        </linearGradient>
    </defs>
    <g id="Scenario-1" stroke="none" stroke-width="1" fill="none" fill-rule="evenodd">
        <g id="Desktop-/-Scenario-1-/-Screen-4" transform="translate(-274.000000, -260.000000)">
            <g id="Group-2" transform="translate(274.000000, 260.000000)">
                <g id="Google-Play" transform="translate(123.000000, 0.000000)">
                    <rect id="btn" fill="#424242" x="0" y="0" width="115" height="42" rx="12"></rect>
                    <g id="icon-+-Google-play-+-Get-it-on" transform="translate(7.000000, 9.000000)">
                        <g id="google-play-icon" transform="translate(0.000000, 8.444444)">
                            <polygon id="Shape" points="10.1 9.77777778 13.0550218 6.75555556 10.1 9.77777778 0.573362445 0.177777778 10.1 9.77777778 0.573362445 19.3777778 10.1 9.77777778 13.0991266 12.8"></polygon>
                            <path d="M13.0550218,6.75555556 L1.45545852,0.355555556 C1.14672489,0.177777778 0.837991266,0.133333333 0.573362445,0.222222222 L10.1,9.77777778 L13.0550218,6.75555556 L13.0550218,6.75555556 Z" id="Shape" fill="url(#linearGradient-1)"></path>
                            <path d="M13.0991266,12.8 L17.068559,10.6222222 C17.8624454,10.1777778 17.8624454,9.46666667 17.068559,9.02222222 L13.0991266,6.8 L10.1,9.77777778 L13.0991266,12.8 L13.0991266,12.8 Z" id="Shape" fill="url(#linearGradient-2)"></path>
                            <path d="M0.573362445,0.177777778 C0.220524017,0.311111111 0,0.666666667 0,1.2 L0,18.3555556 C0,18.8888889 0.220524017,19.2444444 0.573362445,19.3777778 L10.1,9.77777778 L0.573362445,0.177777778 L0.573362445,0.177777778 Z" id="Shape" fill="url(#linearGradient-3)"></path>
                            <path d="M0.573362445,19.3777778 C0.837991266,19.4666667 1.14672489,19.4222222 1.45545852,19.2444444 L13.0550218,12.8 L10.1,9.77777778 L0.573362445,19.3777778 L0.573362445,19.3777778 Z" id="Shape" fill="url(#linearGradient-4)"></path>
                        </g>
                        <g id="google-play" transform="translate(21.611354, 10.666667)" fill="#FFFFFF">
                            <polyline id="Fill-3" points="74.4146611 15.1111111 79.3886463 3.55555556 77.7686529 3.55555556 75.4679932 9.31690685 75.4354737 9.31690685 73.0701488 3.55555556 71.4497817 3.55555556 74.7226617 11.0683093 72.8757795 15.1111111 74.4146611 15.1111111"></polyline>
                            <path d="M67.4803493,3.55555556 C65.4896819,3.55555556 64.5344901,4.75284088 64.2596578,5.48061719 L65.618883,6.06283823 C65.8940887,5.31864031 66.687219,4.91444454 67.5128363,4.91444454 C68.6297161,4.91444454 69.5845345,5.64222085 69.5845345,6.83950617 L69.5845345,7.06604987 C69.2768418,6.88802459 68.5001416,6.58049245 67.4318056,6.58049245 C65.5703392,6.58049245 63.9519651,7.55123408 63.9519651,9.34678885 C63.9519651,10.9971616 65.2951335,12 66.913881,12 C68.2734796,12 69.0826667,11.3043205 69.5195605,10.641111 L69.5845345,10.641111 L69.5845345,11.7409863 L71.0087336,11.7409863 L71.0087336,6.95259141 C71.0087336,4.72037086 69.422473,3.55555556 67.4803493,3.55555556 L67.4803493,3.55555556 Z M67.1565998,10.641111 C66.3798997,10.641111 65.5057387,10.2204936 65.5057387,9.37925887 C65.5057387,8.65110934 66.1207507,7.8102478 67.6909546,7.8102478 C68.9530922,7.8102478 69.5845345,8.3275288 69.5845345,8.3275288 C69.5845345,9.62185097 68.3380802,10.641111 67.1565998,10.641111 L67.1565998,10.641111 Z" id="Fill-2"></path>
                            <polygon id="Fill-1" points="61.7467249 0.444444444 63.069869 0.444444444 63.069869 12 61.7467249 12"></polygon>
                            <path d="M56.8350813,0.444444444 L52.9257642,0.444444444 L52.9257642,12 L54.3997508,12 L54.3997508,7.31969282 L56.8350813,7.31969282 C58.7411367,7.31969282 60.4235808,5.89959007 60.4235808,3.8822548 C60.4235808,1.86491954 58.7411367,0.444444444 56.8350813,0.444444444 L56.8350813,0.444444444 Z M56.8668673,5.89959007 L54.3997508,5.89959007 L54.3997508,1.86491954 L56.8668673,1.86491954 C58.1804452,1.86491954 58.9174385,2.96220396 58.9174385,3.8822548 C58.9174385,4.8019333 58.1804452,5.89959007 56.8668673,5.89959007 L56.8668673,5.89959007 Z" id="Fill-4"></path>
                            <path d="M42.5547772,8.064985 C42.5102565,6.56363268 43.7267857,5.79860536 44.6023602,5.79860536 C45.2850115,5.79860536 45.8634101,6.13714559 46.0563333,6.62250925 L42.5547772,8.064985 L42.5547772,8.064985 Z M44.7359224,12.0678552 C46.5312212,12.0678552 47.5696674,10.9786388 48.0000346,10.3460838 L46.6647834,9.46293536 C46.219576,10.1105775 45.6111259,10.5374326 44.7359224,10.5374326 C43.8603479,10.5374326 43.2370575,10.1400158 42.8367419,9.35990138 L48.0742358,7.21127486 L47.8961529,6.76970065 C47.5696674,5.90163934 46.5757419,4.29725304 44.5429992,4.29725304 C42.5250967,4.29725304 40.8485199,5.87220106 40.8485199,8.18273813 C40.8485199,10.3608029 42.5102565,12.0678552 44.7359224,12.0678552 L44.7359224,12.0678552 Z" id="Fill-5"></path>
                            <polygon id="Path" points="38.2963685 11.832349 40.0174661 11.832349 40.0174661 0.412135931 38.2963685 0.412135931"></polygon>
                            <path d="M33.3553085,4.29725304 C34.2898731,4.29725304 35.0318854,4.70938897 35.4177318,5.16568232 L35.4177318,5.16568232 L35.4770928,5.16568232 L35.4770928,4.53275929 L37.1091488,4.53275929 L37.1091488,11.5085279 C37.1091488,14.3783923 35.4028915,15.5555556 33.384989,15.5555556 C31.4858085,15.5555556 30.3431096,14.2900775 29.9127424,13.2597376 L29.9127424,13.2597376 L31.4116073,12.6419017 C31.6787317,13.2744568 32.3313315,14.0251329 33.384989,14.0251329 C34.6757195,14.0251329 35.4770928,13.2302994 35.4770928,11.7440341 L35.4770928,11.7440341 L35.4770928,11.1847068 L35.4177318,11.1847068 C35.0318854,11.6557193 34.2898731,12.0678552 33.3553085,12.0678552 C31.396767,12.0678552 29.6014682,10.3755221 29.6014682,8.19745727 C29.6014682,6.00467333 31.396767,4.29725304 33.3553085,4.29725304 Z M33.503711,5.82804364 C32.3164913,5.82804364 31.3225658,6.82857721 31.3225658,8.19745727 C31.3225658,9.55125021 32.3164913,10.5374326 33.503711,10.5374326 C34.6757195,10.5374326 35.5958147,9.55125021 35.5958147,8.19745727 C35.5958147,6.82857721 34.6757195,5.82804364 33.503711,5.82804364 Z" id="Path"></path>
                            <path d="M24.9572132,4.29725304 C27.1235181,4.29725304 28.8891364,5.93107763 28.8891364,8.18273813 C28.8891364,10.4196795 27.1235181,12.0678552 24.9572132,12.0678552 C22.7909082,12.0678552 21.0252899,10.4196795 21.0252899,8.18273813 C21.0252899,5.93107763 22.7909082,4.29725304 24.9572132,4.29725304 Z M24.9572132,5.82804364 C23.7699935,5.82804364 22.7463875,6.78441979 22.7463875,8.18273813 C22.7463875,9.56596935 23.7699935,10.5374326 24.9572132,10.5374326 C26.1440619,10.5374326 27.1680389,9.56596935 27.1680389,8.18273813 C27.1680389,6.78441979 26.1440619,5.82804364 24.9572132,5.82804364 Z" id="Path"></path>
                            <path d="M16.3810348,4.29725304 C18.5473398,4.29725304 20.3129581,5.93107763 20.3129581,8.18273813 C20.3129581,10.4196795 18.5473398,12.0678552 16.3810348,12.0678552 C14.2147299,12.0678552 12.4487406,10.4196795 12.4487406,8.18273813 C12.4487406,5.93107763 14.2147299,4.29725304 16.3810348,4.29725304 Z M16.3810348,5.82804364 C15.1938151,5.82804364 14.1702092,6.78441979 14.1702092,8.18273813 C14.1702092,9.56596935 15.1938151,10.5374326 16.3810348,10.5374326 C17.5678835,10.5374326 18.5918605,9.56596935 18.5918605,8.18273813 C18.5918605,6.78441979 17.5678835,5.82804364 16.3810348,5.82804364 Z" id="Path"></path>
                            <path d="M6.17242943,12.0678552 C7.98293948,12.0678552 9.34787113,11.4790896 10.4159979,10.3755221 C11.5141761,9.28630568 11.8555017,7.75588306 11.8555017,6.51947526 C11.8555017,6.13714559 11.8258213,5.78388622 11.7664603,5.48950341 L6.17242943,5.48950341 L6.17242943,7.13767916 L10.1488734,7.13767916 C10.0301515,8.064985 9.71887729,8.74169748 9.24398941,9.21270998 C8.6652198,9.78675645 7.75996478,10.4196795 6.17242943,10.4196795 C3.7241598,10.4196795 1.81013904,8.4624018 1.81013904,6.03411161 C1.81013904,3.60582142 3.7241598,1.64854373 6.17242943,1.64854373 C7.49321135,1.64854373 8.45745635,2.16334566 9.16978818,2.82570698 L10.3417966,1.66326287 C9.34787113,0.72123788 8.02708921,0 6.17242943,0 C2.81927579,0 0,2.70795386 0,6.03411161 C0,9.35990138 2.81927579,12.0678552 6.17242943,12.0678552 L6.17242943,12.0678552 Z" id="Path"></path>
                        </g>
                        <path d="M26.0108105,4.58819538 C25.9579764,4.65764017 25.8844691,4.73460699 25.7902865,4.81909815 C25.6961039,4.90358932 25.5749317,4.98229223 25.4267664,5.05520927 C25.2786011,5.1281263 25.1005757,5.18946828 24.8926848,5.23923704 C24.684794,5.28900581 24.4407268,5.31388982 24.1604762,5.31388982 C23.8457685,5.31388982 23.5569078,5.25949222 23.2938857,5.15069538 C23.0308636,5.04189854 22.8051733,4.8844927 22.6168081,4.67847315 C22.4284428,4.47245361 22.2820026,4.21898392 22.1774829,3.91805649 C22.0729631,3.61712906 22.0207041,3.27338249 22.0207041,2.88680649 L22.0207041,2.55347315 C22.0207041,2.16921197 22.0677947,1.82604411 22.1619773,1.52395927 C22.2561599,1.22187442 22.3916889,0.966668641 22.5685684,0.758334266 C22.7454479,0.549999891 22.9613756,0.391436662 23.2163577,0.282639821 C23.4713399,0.173842981 23.7607748,0.119445377 24.084671,0.119445377 C24.3901902,0.119445377 24.6566541,0.159375533 24.8840706,0.239237044 C25.1114871,0.319098554 25.3032952,0.430787252 25.4595005,0.574306488 C25.6157058,0.717825724 25.7386007,0.88854161 25.8281891,1.08645927 C25.9177774,1.28437692 25.977502,1.50138864 26.0073648,1.73750093 L25.1528343,1.73750093 C25.13216,1.60555583 25.0977035,1.48402927 25.0494636,1.3729176 C25.0012238,1.26180593 24.9351821,1.16574208 24.8513366,1.08472315 C24.7674911,1.00370423 24.6641215,0.94004746 24.5412247,0.893750932 C24.4183279,0.847454405 24.2718876,0.824306488 24.1018995,0.824306488 C23.8974543,0.824306488 23.7200032,0.862500551 23.5695407,0.938889821 C23.4190783,1.01527909 23.2938862,1.12696779 23.1939608,1.27395927 C23.0940353,1.42095074 23.0193795,1.60150449 22.9699911,1.81562593 C22.9206026,2.02974737 22.8959088,2.2733792 22.8959088,2.54652871 L22.8959088,2.88680649 C22.8959088,3.16458565 22.9257711,3.41053227 22.9854966,3.62465371 C23.0452222,3.83877515 23.1307893,4.0187502 23.2422004,4.16458427 C23.3536115,4.31041833 23.4891405,4.42152833 23.6487915,4.4979176 C23.8084425,4.57430687 23.9893393,4.61250093 24.1914874,4.61250093 C24.3408012,4.61250093 24.4688647,4.60266307 24.5756816,4.58298704 C24.6824984,4.56331102 24.7726597,4.53842701 24.846168,4.50833427 C24.9196764,4.47824152 24.9799753,4.44525574 25.0270667,4.40937593 C25.074158,4.37349612 25.1126344,4.33935295 25.1424972,4.30694538 L25.1424972,3.31736204 L24.1087909,3.31736204 L24.1087909,2.65069538 L26.0108105,2.65069538 L26.0108105,4.58819538 Z M29.900992,2.98750093 L27.8404707,2.98750093 L27.8404707,4.54305649 L30.2490065,4.54305649 L30.2490065,5.24444538 L26.9687117,5.24444538 L26.9687117,0.188889821 L30.2248867,0.188889821 L30.2248867,0.897223155 L27.8404707,0.897223155 L27.8404707,2.29305649 L29.900992,2.29305649 L29.900992,2.98750093 Z M34.5836817,0.897223155 L33.0193394,0.897223155 L33.0193394,5.24444538 L32.1544718,5.24444538 L32.1544718,0.897223155 L30.6039123,0.897223155 L30.6039123,0.188889821 L34.5836817,0.188889821 L34.5836817,0.897223155 Z M37.9191075,5.24444538 L37.0507941,5.24444538 L37.0507941,0.188889821 L37.9191075,0.188889821 L37.9191075,5.24444538 Z M42.6155799,0.897223155 L41.0512376,0.897223155 L41.0512376,5.24444538 L40.18637,5.24444538 L40.18637,0.897223155 L38.6358105,0.897223155 L38.6358105,0.188889821 L42.6155799,0.188889821 L42.6155799,0.897223155 Z M49.0348962,2.84861204 C49.0348962,3.23287322 48.9849342,3.57719848 48.8850088,3.88159815 C48.7850833,4.18599782 48.6443858,4.4440971 48.462912,4.65590371 C48.2814382,4.86771032 48.0632135,5.03032444 47.8082314,5.14375093 C47.5532492,5.25717743 47.2707056,5.31388982 46.9605922,5.31388982 C46.6527759,5.31388982 46.3713808,5.25717743 46.1163987,5.14375093 C45.8614165,5.03032444 45.641469,4.86771032 45.4565495,4.65590371 C45.27163,4.4440971 45.1280611,4.18599782 45.0258385,3.88159815 C44.9236159,3.57719848 44.8725054,3.23287322 44.8725054,2.84861204 L44.8725054,2.5916676 C44.8725054,2.20740642 44.9236159,1.86250246 45.0258385,1.55694538 C45.1280611,1.25138829 45.2704814,0.992131627 45.4531038,0.779167599 C45.6357261,0.566203571 45.8545251,0.403010759 46.1095073,0.289584266 C46.3644895,0.176157773 46.6458845,0.119445377 46.9537008,0.119445377 C47.2638142,0.119445377 47.5469321,0.176157773 47.8030628,0.289584266 C48.0591936,0.403010759 48.2785668,0.566203571 48.4611892,0.779167599 C48.6438116,0.992131627 48.7850833,1.25138829 48.8850088,1.55694538 C48.9849342,1.86250246 49.0348962,2.20740642 49.0348962,2.5916676 L49.0348962,2.84861204 Z M48.1631372,2.58472315 C48.1631372,2.30231434 48.1361463,2.05289553 48.0821635,1.83645927 C48.0281808,1.620023 47.9495051,1.43889055 47.8461339,1.29305649 C47.7427628,1.14722243 47.6158479,1.03669112 47.4653854,0.961459266 C47.314923,0.886227408 47.1443631,0.848612044 46.9537008,0.848612044 C46.7676327,0.848612044 46.5999443,0.886227408 46.4506304,0.961459266 C46.3013165,1.03669112 46.1744016,1.14722243 46.0698819,1.29305649 C45.9653622,1.43889055 45.8849636,1.620023 45.8286837,1.83645927 C45.7724039,2.05289553 45.7442644,2.30231434 45.7442644,2.58472315 L45.7442644,2.84861204 C45.7442644,3.13102086 45.7724039,3.38101836 45.8286837,3.59861204 C45.8849636,3.81620572 45.9659364,3.99849557 46.0716047,4.14548704 C46.177273,4.29247852 46.3053365,4.40358852 46.4557989,4.47882038 C46.6062614,4.55405223 46.7745241,4.5916676 46.9605922,4.5916676 C47.3465111,4.5916676 47.6434116,4.44352093 47.8513025,4.14722315 C48.0591933,3.85092538 48.1631372,3.41805934 48.1631372,2.84861204 L48.1631372,2.58472315 Z M53.8829789,5.24444538 L53.0112199,5.24444538 L50.7749685,1.65763982 L50.7749685,5.24444538 L49.9032095,5.24444538 L49.9032095,0.188889821 L50.7749685,0.188889821 L53.0181113,3.78958427 L53.0181113,0.188889821 L53.8829789,0.188889821 L53.8829789,5.24444538 Z" id="GET-IT-ON" fill="#FFFFFF"></path>
                    </g>
                </g>
                <g id="App-Store">
                    <rect id="btn" fill="#424242" x="0" y="0" width="115" height="42" rx="12"></rect>
                    <g id="Group" transform="translate(9.000000, 8.000000)" fill="#FFFFFF">
                        <path d="M15.0002216,12.2534612 C14.9751844,9.38833454 17.2786045,7.99444111 17.3839333,7.92954683 C16.0794102,5.97116212 14.0574425,5.70358436 13.3469047,5.68224926 C11.6486936,5.49823399 10.0014202,6.72855829 9.1363427,6.72855829 C8.25399815,6.72855829 6.9218478,5.70002851 5.48609536,5.73025324 C3.63852456,5.75958901 1.91009618,6.86101373 0.962136958,8.57137787 C-0.994216044,12.0587783 0.464846875,17.183648 2.33918155,20.0025486 C3.27678056,21.3831076 4.37237277,22.9245688 5.80639852,22.8703421 C7.20934363,22.8107816 7.73339759,21.9493768 9.42642859,21.9493768 C11.1039193,21.9493768 11.5960292,22.8703421 13.0585456,22.8356725 C14.5642294,22.8107816 15.5121887,21.4488908 16.4169803,20.0558863 C17.5004856,18.4735328 17.9356145,16.9151813 17.9528815,16.8351747 C17.9174841,16.8227292 15.0287122,15.6875239 15.0002216,12.2534612 L15.0002216,12.2534612 Z" id="Shape"></path>
                        <path d="M12.2374989,3.82787317 C12.9920676,2.85623699 13.5083514,1.53434953 13.3650351,0.192904895 C12.2728963,0.242686803 10.9070753,0.970747213 10.1205627,1.92104829 C9.42470188,2.7584511 8.80308928,4.13100943 8.96367254,5.4217832 C10.1904941,5.51601324 11.450123,4.78439698 12.2374989,3.82787317 L12.2374989,3.82787317 Z" id="Shape"></path>
                    </g>
                    <g id="Group" transform="translate(35.000000, 19.000000)" fill="#FFFFFF">
                        <path d="M10.2073457,12.0035556 L8.21671605,12.0035556 L7.1262963,8.52888889 L3.33612346,8.52888889 L2.29741975,12.0035556 L0.359382716,12.0035556 L4.11449383,0.174222222 L6.43382716,0.174222222 L10.2073457,12.0035556 L10.2073457,12.0035556 Z M6.79759259,7.07111111 L5.81148148,3.98222222 C5.70717284,3.66666667 5.5117037,2.92355556 5.22332099,1.75377778 L5.18825926,1.75377778 C5.0734321,2.25688889 4.88848148,3 4.63428395,3.98222222 L3.6657037,7.07111111 L6.79759259,7.07111111 L6.79759259,7.07111111 Z" id="Shape"></path>
                        <path d="M19.8642222,7.63377778 C19.8642222,9.08444444 19.4776667,10.2311111 18.7045556,11.0728889 C18.0120864,11.8222222 17.1521975,12.1964444 16.1257654,12.1964444 C15.0178148,12.1964444 14.2219136,11.7928889 13.7371852,10.9857778 L13.7021235,10.9857778 L13.7021235,15.4791111 L11.8333333,15.4791111 L11.8333333,6.28177778 C11.8333333,5.36977778 11.8096667,4.43377778 11.7640864,3.47377778 L13.4076049,3.47377778 L13.5119136,4.82577778 L13.5469753,4.82577778 C14.1701975,3.80711111 15.1159877,3.29866667 16.3852222,3.29866667 C17.3774691,3.29866667 18.2058025,3.696 18.8684691,4.49155556 C19.5328889,5.288 19.8642222,6.33511111 19.8642222,7.63377778 L19.8642222,7.63377778 Z M17.9603704,7.70311111 C17.9603704,6.87288889 17.7762963,6.18844444 17.4063951,5.64977778 C17.0023086,5.088 16.4597284,4.80711111 15.7795309,4.80711111 C15.3184691,4.80711111 14.8994815,4.96355556 14.5251975,5.272 C14.150037,5.58311111 13.9046049,5.98933333 13.7897778,6.49244444 C13.7319259,6.72711111 13.703,6.91911111 13.703,7.07022222 L13.703,8.49244444 C13.703,9.11288889 13.8905802,9.63644444 14.2657407,10.064 C14.6409012,10.4915556 15.1282593,10.7048889 15.7278148,10.7048889 C16.431679,10.7048889 16.9795185,10.4293333 17.3713333,9.88 C17.7640247,9.32977778 17.9603704,8.60444444 17.9603704,7.70311111 L17.9603704,7.70311111 Z" id="Shape"></path>
                        <path d="M29.5386296,7.63377778 C29.5386296,9.08444444 29.1520741,10.2311111 28.3780864,11.0728889 C27.6864938,11.8222222 26.8266049,12.1964444 25.8001728,12.1964444 C24.6922222,12.1964444 23.896321,11.7928889 23.4124691,10.9857778 L23.3774074,10.9857778 L23.3774074,15.4791111 L21.5086173,15.4791111 L21.5086173,6.28177778 C21.5086173,5.36977778 21.4849506,4.43377778 21.4393704,3.47377778 L23.0828889,3.47377778 L23.1871975,4.82577778 L23.2222593,4.82577778 C23.8446049,3.80711111 24.7903951,3.29866667 26.0605062,3.29866667 C27.0518765,3.29866667 27.8802099,3.696 28.5446296,4.49155556 C29.2064198,5.288 29.5386296,6.33511111 29.5386296,7.63377778 L29.5386296,7.63377778 Z M27.6347778,7.70311111 C27.6347778,6.87288889 27.4498272,6.18844444 27.0799259,5.64977778 C26.6758395,5.088 26.1350123,4.80711111 25.4539383,4.80711111 C24.992,4.80711111 24.5738889,4.96355556 24.1987284,5.272 C23.8235679,5.58311111 23.5790123,5.98933333 23.4641852,6.49244444 C23.4072099,6.72711111 23.3774074,6.91911111 23.3774074,7.07022222 L23.3774074,8.49244444 C23.3774074,9.11288889 23.5649877,9.63644444 23.9383951,10.064 C24.3135556,10.4906667 24.8009136,10.7048889 25.4022222,10.7048889 C26.1060864,10.7048889 26.6539259,10.4293333 27.0457407,9.88 C27.4384321,9.32977778 27.6347778,8.60444444 27.6347778,7.70311111 L27.6347778,7.70311111 Z" id="Shape"></path>
                        <path d="M40.3551728,8.68622222 C40.3551728,9.69244444 40.0106914,10.5111111 39.3190988,11.1431111 C38.5591358,11.8337778 37.5011481,12.1786667 36.1416296,12.1786667 C34.8864198,12.1786667 33.8801481,11.9333333 33.1184321,11.4417778 L33.5514444,9.86222222 C34.3718889,10.3653333 35.2720988,10.6177778 36.2529506,10.6177778 C36.9568148,10.6177778 37.5046543,10.456 37.8982222,10.1342222 C38.290037,9.81244444 38.4855062,9.38044444 38.4855062,8.84177778 C38.4855062,8.36177778 38.3242222,7.95733333 38.0007778,7.62933333 C37.6790864,7.30133333 37.1417654,6.99644444 36.3914444,6.71466667 C34.3490988,5.94222222 33.3288025,4.81066667 33.3288025,3.32266667 C33.3288025,2.35022222 33.6864321,1.55288889 34.4025679,0.932444444 C35.1160741,0.311111111 36.068,0.000888888889 37.2583457,0.000888888889 C38.3198395,0.000888888889 39.201642,0.188444444 39.9055062,0.562666667 L39.4383086,2.10755556 C38.7809012,1.74488889 38.0375926,1.56355556 37.2057531,1.56355556 C36.5483457,1.56355556 36.0346914,1.728 35.6665432,2.05511111 C35.3553704,2.34755556 35.1993457,2.704 35.1993457,3.12622222 C35.1993457,3.59377778 35.377284,3.98044444 35.7349136,4.28444444 C36.0460864,4.56533333 36.6114568,4.86933333 37.4319012,5.19733333 C38.4355432,5.60711111 39.172716,6.08622222 39.6469259,6.63555556 C40.1193827,7.18311111 40.3551728,7.86844444 40.3551728,8.68622222 L40.3551728,8.68622222 Z" id="Shape"></path>
                        <path d="M46.5339259,4.896 L44.4740494,4.896 L44.4740494,9.03733333 C44.4740494,10.0906667 44.8369383,10.6168889 45.5644691,10.6168889 C45.8984321,10.6168889 46.1754198,10.5875556 46.3945556,10.5288889 L46.4462716,11.968 C46.0781235,12.1075556 45.5933951,12.1777778 44.992963,12.1777778 C44.2549136,12.1777778 43.6781481,11.9493333 43.2617901,11.4933333 C42.8471852,11.0364444 42.6385679,10.2702222 42.6385679,9.19377778 L42.6385679,4.89422222 L41.4114074,4.89422222 L41.4114074,3.472 L42.6385679,3.472 L42.6385679,1.91022222 L44.4740494,1.34844444 L44.4740494,3.472 L46.5339259,3.472 L46.5339259,4.896 L46.5339259,4.896 Z" id="Shape"></path>
                        <path d="M55.8279136,7.66844444 C55.8279136,8.97955556 55.4580123,10.056 54.719963,10.8977778 C53.9459753,11.7644444 52.9186667,12.1964444 51.638037,12.1964444 C50.4038642,12.1964444 49.4212593,11.7813333 48.6884691,10.9511111 C47.955679,10.1208889 47.589284,9.07288889 47.589284,7.80977778 C47.589284,6.488 47.9661975,5.40533333 48.7226543,4.56355556 C49.477358,3.72088889 50.4959012,3.29955556 51.7765309,3.29955556 C53.0107037,3.29955556 54.0038272,3.71466667 54.7532716,4.54577778 C55.470284,5.352 55.8279136,6.39288889 55.8279136,7.66844444 L55.8279136,7.66844444 Z M53.889,7.72977778 C53.889,6.94311111 53.7233333,6.26844444 53.3876173,5.70577778 C52.9958025,5.02488889 52.4356914,4.68533333 51.7099136,4.68533333 C50.958716,4.68533333 50.3880864,5.02577778 49.9962716,5.70577778 C49.6605556,6.26933333 49.4948889,6.95466667 49.4948889,7.76533333 C49.4948889,8.552 49.6605556,9.22666667 49.9962716,9.78844444 C50.400358,10.4693333 50.9648519,10.8088889 51.6932593,10.8088889 C52.4067654,10.8088889 52.9668765,10.4622222 53.370963,9.77066667 C53.7154444,9.19733333 53.889,8.51555556 53.889,7.72977778 L53.889,7.72977778 Z" id="Shape"></path>
                        <path d="M61.902358,5.14044444 C61.7174074,5.10577778 61.5201852,5.088 61.313321,5.088 C60.6559136,5.088 60.1475185,5.33955556 59.7898889,5.84355556 C59.478716,6.288 59.3226914,6.84977778 59.3226914,7.528 L59.3226914,12.0035556 L57.4547778,12.0035556 L57.4723086,6.16 C57.4723086,5.17688889 57.448642,4.28177778 57.4021852,3.47466667 L59.0299259,3.47466667 L59.0982963,5.10666667 L59.1500123,5.10666667 C59.3472346,4.54577778 59.6584074,4.09422222 60.0844074,3.75555556 C60.5007654,3.45066667 60.9504321,3.29866667 61.4351605,3.29866667 C61.6078395,3.29866667 61.7638642,3.31111111 61.902358,3.33333333 L61.902358,5.14044444 L61.902358,5.14044444 Z" id="Shape"></path>
                        <path d="M70.2601975,7.33511111 C70.2601975,7.67466667 70.238284,7.96088889 70.1918272,8.19466667 L64.5854568,8.19466667 C64.6073704,9.03733333 64.8782222,9.68177778 65.3988889,10.1262222 C65.8713457,10.5235556 66.4822963,10.7226667 67.2326173,10.7226667 C68.0627037,10.7226667 68.820037,10.5884444 69.5011111,10.3191111 L69.7938765,11.6346667 C68.9979753,11.9866667 68.058321,12.1617778 66.974037,12.1617778 C65.6697407,12.1617778 64.6459383,11.7724444 63.9008765,10.9946667 C63.1575679,10.2168889 62.785037,9.17244444 62.785037,7.86222222 C62.785037,6.576 63.1312716,5.50488889 63.8246173,4.65066667 C64.5503951,3.73866667 65.5312469,3.28266667 66.7654198,3.28266667 C67.977679,3.28266667 68.8954198,3.73866667 69.518642,4.65066667 C70.0121358,5.37511111 70.2601975,6.27111111 70.2601975,7.33511111 L70.2601975,7.33511111 Z M68.4781852,6.84355556 C68.4904568,6.28177778 68.3686173,5.79644444 68.1152963,5.38666667 C67.7918519,4.85955556 67.2948519,4.59644444 66.6260494,4.59644444 C66.0150988,4.59644444 65.5180988,4.85333333 65.1385556,5.36888889 C64.8273827,5.77866667 64.6424321,6.27022222 64.5854568,6.84266667 L68.4781852,6.84266667 L68.4781852,6.84355556 Z" id="Shape"></path>
                    </g>
                    <g id="Group" transform="translate(36.000000, 9.000000)" fill="#FFFFFF">
                        <path d="M5.28417722,3.507875 C5.28417722,4.53775 4.97586076,5.313 4.36010127,5.833625 C3.78975949,6.314 2.97922785,6.554625 1.92937975,6.554625 C1.40882278,6.554625 0.963379747,6.531875 0.59043038,6.486375 L0.59043038,0.85925 C1.07692405,0.7805 1.60097468,0.74025 2.16694937,0.74025 C3.16701266,0.74025 3.92077215,0.958125 4.42910127,1.393875 C4.99856962,1.8865 5.28417722,2.590875 5.28417722,3.507875 L5.28417722,3.507875 Z M4.31905063,3.53325 C4.31905063,2.865625 4.14262025,2.35375 3.78975949,1.99675 C3.43689873,1.640625 2.92158228,1.462125 2.24293671,1.462125 C1.95470886,1.462125 1.70927848,1.481375 1.50577215,1.521625 L1.50577215,5.7995 C1.61844304,5.817 1.82456962,5.824875 2.1241519,5.824875 C2.82463291,5.824875 3.36527848,5.62975 3.74608861,5.2395 C4.12689873,4.84925 4.31905063,4.2805 4.31905063,3.53325 L4.31905063,3.53325 Z" id="Shape"></path>
                        <path d="M10.4015316,4.407375 C10.4015316,5.04175 10.2207342,5.5615 9.85913924,5.96925 C9.48007595,6.388375 8.97786076,6.5975 8.35074684,6.5975 C7.74634177,6.5975 7.26508861,6.397125 6.90611392,5.994625 C6.54801266,5.593 6.36896203,5.086375 6.36896203,4.475625 C6.36896203,3.836875 6.55325316,3.31275 6.92358228,2.905875 C7.29391139,2.499 7.79175949,2.295125 8.41887342,2.295125 C9.02327848,2.295125 9.50889873,2.4955 9.87660759,2.897125 C10.2259747,3.287375 10.4015316,3.791375 10.4015316,4.407375 L10.4015316,4.407375 Z M9.45212658,4.437125 C9.45212658,4.0565 9.37002532,3.730125 9.2066962,3.458 C9.0145443,3.129 8.74116456,2.9645 8.38568354,2.9645 C8.01797468,2.9645 7.73848101,3.129 7.54632911,3.458 C7.38212658,3.730125 7.30089873,4.06175 7.30089873,4.45375 C7.30089873,4.834375 7.383,5.16075 7.54632911,5.432875 C7.74459494,5.761875 8.02059494,5.926375 8.37694937,5.926375 C8.72631646,5.926375 9.00056962,5.75925 9.19796203,5.424125 C9.36740506,5.14675 9.45212658,4.81775 9.45212658,4.437125 L9.45212658,4.437125 Z" id="Shape"></path>
                        <path d="M17.2631013,2.379125 L15.9748101,6.503875 L15.1363291,6.503875 L14.6026709,4.71275 C14.4672911,4.265625 14.3572405,3.821125 14.2716456,3.380125 L14.2550506,3.380125 C14.1755696,3.833375 14.065519,4.277 13.9240253,4.71275 L13.3571772,6.503875 L12.5090886,6.503875 L11.2976582,2.379125 L12.2383291,2.379125 L12.7038608,4.34 C12.8165316,4.80375 12.9091139,5.245625 12.9833544,5.663875 L12.9999494,5.663875 C13.0680759,5.319125 13.1807468,4.879875 13.3397089,4.34875 L13.9240253,2.38 L14.6699241,2.38 L15.2297848,4.30675 C15.3651646,4.776625 15.4752152,5.229 15.5599367,5.66475 L15.5852658,5.66475 C15.6472785,5.240375 15.7407342,4.788 15.8647595,4.30675 L16.3643544,2.38 L17.2631013,2.38 L17.2631013,2.379125 Z" id="Shape"></path>
                        <path d="M22.0083797,6.503875 L21.093038,6.503875 L21.093038,4.141375 C21.093038,3.413375 20.817038,3.049375 20.2632911,3.049375 C19.9916582,3.049375 19.7724304,3.149125 19.6021139,3.3495 C19.4335443,3.549875 19.3479494,3.786125 19.3479494,4.0565 L19.3479494,6.503 L18.4326076,6.503 L18.4326076,3.55775 C18.4326076,3.1955 18.4212532,2.802625 18.3994177,2.377375 L19.2038354,2.377375 L19.2466329,3.02225 L19.271962,3.02225 C19.378519,2.821875 19.537481,2.6565 19.7462278,2.524375 C19.9942785,2.370375 20.2720253,2.2925 20.5759747,2.2925 C20.9602785,2.2925 21.2799494,2.41675 21.5341139,2.666125 C21.8502911,2.9715 22.0083797,3.427375 22.0083797,4.032875 L22.0083797,6.503875 L22.0083797,6.503875 Z" id="Shape"></path>
                        <polygon id="Shape" points="24.532557 6.503875 23.6180886 6.503875 23.6180886 0.4865 24.532557 0.4865"></polygon>
                        <path d="M29.9215443,4.407375 C29.9215443,5.04175 29.7407468,5.5615 29.3791519,5.96925 C29.0000886,6.388375 28.497,6.5975 27.8707595,6.5975 C27.265481,6.5975 26.7842278,6.397125 26.4261266,5.994625 C26.0680253,5.593 25.8889747,5.086375 25.8889747,4.475625 C25.8889747,3.836875 26.0732658,3.31275 26.4435949,2.905875 C26.8139241,2.499 27.3117722,2.295125 27.9380127,2.295125 C28.5432911,2.295125 29.028038,2.4955 29.3966203,2.897125 C29.7459873,3.287375 29.9215443,3.791375 29.9215443,4.407375 L29.9215443,4.407375 Z M28.9712658,4.437125 C28.9712658,4.0565 28.8891646,3.730125 28.7258354,3.458 C28.534557,3.129 28.2603038,2.9645 27.9056962,2.9645 C27.5371139,2.9645 27.2576203,3.129 27.0663418,3.458 C26.9021392,3.730125 26.8209114,4.06175 26.8209114,4.45375 C26.8209114,4.834375 26.9030127,5.16075 27.0663418,5.432875 C27.2646076,5.761875 27.5406076,5.926375 27.896962,5.926375 C28.2463291,5.926375 28.5197089,5.75925 28.7171013,5.424125 C28.8874177,5.14675 28.9712658,4.81775 28.9712658,4.437125 L28.9712658,4.437125 Z" id="Shape"></path>
                        <path d="M34.351519,6.503875 L33.5296329,6.503875 L33.4615063,6.02875 L33.4361772,6.02875 C33.1549367,6.407625 32.754038,6.5975 32.233481,6.5975 C31.8448101,6.5975 31.5303797,6.472375 31.2936835,6.223875 C31.0788228,5.998125 30.9713924,5.71725 30.9713924,5.383875 C30.9713924,4.879875 31.1810127,4.49575 31.6028734,4.22975 C32.0238608,3.96375 32.616038,3.833375 33.3785316,3.8395 L33.3785316,3.7625 C33.3785316,3.219125 33.0937975,2.947875 32.5234557,2.947875 C32.1173165,2.947875 31.7592152,3.05025 31.4500253,3.25325 L31.2639873,2.65125 C31.6465443,2.414125 32.1190633,2.295125 32.6763038,2.295125 C33.7523544,2.295125 34.2921266,2.863875 34.2921266,4.001375 L34.2921266,5.520375 C34.2921266,5.9325 34.3122152,6.260625 34.351519,6.503875 L34.351519,6.503875 Z M33.4012405,5.086375 L33.4012405,4.45025 C32.3915696,4.43275 31.8867342,4.710125 31.8867342,5.2815 C31.8867342,5.49675 31.9443797,5.65775 32.0622911,5.765375 C32.1802025,5.873 32.3304304,5.926375 32.509481,5.926375 C32.7103671,5.926375 32.8981519,5.8625 33.0693418,5.735625 C33.2414051,5.607875 33.3470886,5.446 33.3863924,5.247375 C33.396,5.20275 33.4012405,5.1485 33.4012405,5.086375 L33.4012405,5.086375 Z" id="Shape"></path>
                        <path d="M39.5527215,6.503875 L38.740443,6.503875 L38.6976456,5.8415 L38.6723165,5.8415 C38.4129114,6.3455 37.970962,6.5975 37.349962,6.5975 C36.8538608,6.5975 36.4407342,6.402375 36.1132025,6.012125 C35.7856709,5.621875 35.6223418,5.11525 35.6223418,4.493125 C35.6223418,3.8255 35.7996456,3.28475 36.156,2.87175 C36.501,2.48675 36.9237342,2.29425 37.4268228,2.29425 C37.9796962,2.29425 38.3666203,2.480625 38.5867215,2.85425 L38.6041899,2.85425 L38.6041899,0.4865 L39.5204051,0.4865 L39.5204051,5.392625 C39.5204051,5.79425 39.5308861,6.164375 39.5527215,6.503875 L39.5527215,6.503875 Z M38.6041899,4.764375 L38.6041899,4.076625 C38.6041899,3.957625 38.5954557,3.861375 38.5788608,3.787875 C38.5273291,3.567375 38.4164051,3.381875 38.2478354,3.23225 C38.077519,3.082625 37.8722658,3.007375 37.6355696,3.007375 C37.2940633,3.007375 37.0267975,3.143 36.8302785,3.415125 C36.6355063,3.68725 36.5368101,4.034625 36.5368101,4.459 C36.5368101,4.86675 36.6302658,5.1975 36.8180506,5.452125 C37.0163165,5.723375 37.2835823,5.859 37.6181013,5.859 C37.918557,5.859 38.1587468,5.746125 38.3412911,5.5195 C38.5177215,5.310375 38.6041899,5.058375 38.6041899,4.764375 L38.6041899,4.764375 Z" id="Shape"></path>
                        <path d="M47.3811646,4.407375 C47.3811646,5.04175 47.2003671,5.5615 46.8387722,5.96925 C46.4597089,6.388375 45.9583671,6.5975 45.3303797,6.5975 C44.7268481,6.5975 44.2455949,6.397125 43.8857468,5.994625 C43.5276456,5.593 43.3485949,5.086375 43.3485949,4.475625 C43.3485949,3.836875 43.5328861,3.31275 43.9032152,2.905875 C44.2735443,2.499 44.7713924,2.295125 45.3993797,2.295125 C46.0029114,2.295125 46.4894051,2.4955 46.8562405,2.897125 C47.2056076,3.287375 47.3811646,3.791375 47.3811646,4.407375 L47.3811646,4.407375 Z M46.4326329,4.437125 C46.4326329,4.0565 46.3505316,3.730125 46.1872025,3.458 C45.9941772,3.129 45.7216709,2.9645 45.3653165,2.9645 C44.998481,2.9645 44.7189873,3.129 44.525962,3.458 C44.3617595,3.730125 44.2805316,4.06175 44.2805316,4.45375 C44.2805316,4.834375 44.3626329,5.16075 44.525962,5.432875 C44.7242278,5.761875 45.0002278,5.926375 45.3565823,5.926375 C45.7059494,5.926375 45.9810759,5.75925 46.1784684,5.424125 C46.347038,5.14675 46.4326329,4.81775 46.4326329,4.437125 L46.4326329,4.437125 Z" id="Shape"></path>
                        <path d="M52.3028734,6.503875 L51.3884051,6.503875 L51.3884051,4.141375 C51.3884051,3.413375 51.1124051,3.049375 50.5577848,3.049375 C50.2861519,3.049375 50.0669241,3.149125 49.897481,3.3495 C49.728038,3.549875 49.6433165,3.786125 49.6433165,4.0565 L49.6433165,6.503 L48.7271013,6.503 L48.7271013,3.55775 C48.7271013,3.1955 48.7166203,2.802625 48.6947848,2.377375 L49.4983291,2.377375 L49.5411266,3.02225 L49.5664557,3.02225 C49.6738861,2.821875 49.8328481,2.6565 50.0407215,2.524375 C50.2896456,2.370375 50.566519,2.2925 50.8713418,2.2925 C51.2547722,2.2925 51.574443,2.41675 51.8286076,2.666125 C52.1456582,2.9715 52.3028734,3.427375 52.3028734,4.032875 L52.3028734,6.503875 L52.3028734,6.503875 Z" id="Shape"></path>
                        <path d="M58.4630886,3.066 L57.4551646,3.066 L57.4551646,5.06975 C57.4551646,5.579 57.6342152,5.833625 57.9888228,5.833625 C58.1530253,5.833625 58.2892785,5.819625 58.3967089,5.79075 L58.4202911,6.486375 C58.2394937,6.554625 58.0019241,6.58875 57.7093291,6.58875 C57.3477342,6.58875 57.0664937,6.4785 56.8629873,6.258 C56.6586076,6.0375 56.5572911,5.6665 56.5572911,5.145875 L56.5572911,3.066 L55.9555063,3.066 L55.9555063,2.379125 L56.5572911,2.379125 L56.5572911,1.623125 L57.4542911,1.351875 L57.4542911,2.37825 L58.4622152,2.37825 L58.4622152,3.066 L58.4630886,3.066 Z" id="Shape"></path>
                        <path d="M63.3088101,6.503875 L62.3925949,6.503875 L62.3925949,4.158875 C62.3925949,3.4195 62.1165949,3.049375 61.5637215,3.049375 C61.1392405,3.049375 60.8492658,3.26375 60.6903038,3.6925 C60.6632278,3.782625 60.6475063,3.892875 60.6475063,4.022375 L60.6475063,6.503 L59.733038,6.503 L59.733038,0.4865 L60.6475063,0.4865 L60.6475063,2.972375 L60.6649747,2.972375 C60.9532025,2.52 61.3663291,2.29425 61.9017342,2.29425 C62.2807975,2.29425 62.5943544,2.4185 62.8432785,2.667875 C63.1533418,2.9785 63.3088101,3.4405 63.3088101,4.05125 L63.3088101,6.503875 L63.3088101,6.503875 Z" id="Shape"></path>
                        <path d="M68.3073797,4.246375 C68.3073797,4.410875 68.2951519,4.549125 68.2733165,4.662 L65.5281646,4.662 C65.5403924,5.06975 65.6714051,5.380375 65.9255696,5.595625 C66.1578987,5.788125 66.457481,5.884375 66.8243165,5.884375 C67.2304557,5.884375 67.6007848,5.819625 67.9344304,5.68925 L68.0776709,6.32625 C67.6872532,6.496 67.2278354,6.580875 66.6959241,6.580875 C66.0583291,6.580875 65.5561139,6.39275 65.1927722,6.0165 C64.8276835,5.64025 64.6468861,5.135375 64.6468861,4.501875 C64.6468861,3.87975 64.8154557,3.36175 65.1552152,2.94875 C65.5098228,2.50775 65.9893291,2.28725 66.5946076,2.28725 C67.1867848,2.28725 67.6365949,2.50775 67.9405443,2.94875 C68.1859747,3.29875 68.3073797,3.731875 68.3073797,4.246375 L68.3073797,4.246375 Z M67.433962,4.00925 C67.4409494,3.737125 67.3806835,3.502625 67.2566582,3.304875 C67.0976962,3.05025 66.8557595,2.9225 66.5282278,2.9225 C66.229519,2.9225 65.9858354,3.04675 65.7997975,3.296125 C65.6478228,3.49475 65.5578608,3.731875 65.5281646,4.00925 L67.433962,4.00925 L67.433962,4.00925 Z" id="Shape"></path>
                    </g>
                </g>
            </g>
        </g>
    </g>
</svg>