<?xml version="1.0" encoding="UTF-8"?>
<svg width="122px" height="25px" viewBox="0 0 122 25" version="1.1" xmlns="http://www.w3.org/2000/svg" xmlns:xlink="http://www.w3.org/1999/xlink">
    <title>logo/white/v2</title>
    <defs>
        <polygon id="path-1" points="0 0.0882214286 12.4650167 0.0882214286 12.4650167 17.2779833 0 17.2779833"></polygon>
        <polygon id="path-3" points="0.318578829 0.0542690476 12.0261464 0.0542690476 12.0261464 13.1428571 0.318578829 13.1428571"></polygon>
        <polygon id="path-5" points="0.195344144 0.3703 4.7322991 0.3703 4.7322991 4.92857143 0.195344144 4.92857143"></polygon>
        <polygon id="path-7" points="0.253609459 0.3703 4.79056441 0.3703 4.79056441 4.92857143 0.253609459 4.92857143"></polygon>
    </defs>
    <g id="Symbols" stroke="none" stroke-width="1" fill="none" fill-rule="evenodd" opacity="0.99">
        <g id="Desktop/Hompage/Nav" transform="translate(0.000000, -7.000000)">
            <g id="Group-27-Copy" transform="translate(0.000000, 9.000000)">
                <g id="Group-3" transform="translate(0.000000, 5.381343)">
                    <mask id="mask-2" fill="white">
                        <use xlink:href="#path-1"></use>
                    </mask>
                    <g id="Clip-2"></g>
                    <path d="M9.88640856,14.9944119 C10.5622644,14.438031 10.9007374,13.6029119 10.9007374,12.4896024 C10.9007374,11.3439833 10.5546338,10.5001024 9.86242658,9.96015 C9.16912928,9.41965 8.27689054,9.14967381 7.18571036,9.14967381 L1.56411577,9.14967381 L1.56411577,15.829531 L7.23476441,15.829531 C8.32594459,15.829531 9.21000766,15.5513405 9.88640856,14.9944119 M9.22635901,2.31100714 C8.69657523,1.79515 7.95912928,1.53776905 7.01456622,1.53776905 L1.56411577,1.53776905 L1.56411577,7.67657857 L7.01456622,7.67657857 C7.89481396,7.66015 8.61536351,7.37374524 9.17730495,6.81681667 C9.73979144,6.26043571 10.0210347,5.4663881 10.0210347,4.43522143 C10.0210347,3.53493571 9.75614279,2.82631667 9.22635901,2.31100714 M11.5362599,9.61624524 C12.1554311,10.3533405 12.4650167,11.3105786 12.4650167,12.4896024 C12.4650167,14.0941262 11.9717509,15.2928643 10.9863095,16.0869119 C10.000323,16.8815071 8.77451667,17.2779833 7.30780045,17.2779833 L0.733467117,17.2779833 C0.521444595,17.2779833 0.34594009,17.2089833 0.207498649,17.0693405 C0.0690572072,16.9307929 -0.000163513514,16.7544595 -0.000163513514,16.5414357 L-0.000163513514,0.825316667 C-0.000163513514,0.612292857 0.0690572072,0.436507143 0.207498649,0.297411905 C0.34594009,0.158316667 0.521444595,0.0882214286 0.733467117,0.0882214286 L7.20969234,0.0882214286 C8.5788455,0.0882214286 9.64985901,0.464983333 10.424368,1.21795952 C11.1977869,1.97093571 11.585314,3.00265 11.585314,4.31200714 C11.585314,5.17998333 11.3732914,5.95760238 10.9497914,6.6454119 C10.5257464,7.33267381 9.92292658,7.83210238 9.14078694,8.14315 C10.1185977,8.38848333 10.9170887,8.87969762 11.5362599,9.61624524" id="Fill-1" fill="#FFFFFF" mask="url(#mask-2)"></path>
                </g>
                <path d="M27.1292901,21.5547238 C27.2432045,21.7184619 27.3004342,21.8657714 27.3004342,21.9966524 C27.3004342,22.2261048 27.2230378,22.4101048 27.0687901,22.5486524 C26.9134523,22.6877476 26.7384928,22.7578429 26.5428216,22.7578429 C26.2986414,22.7578429 26.1029703,22.6510571 25.9563532,22.438581 L20.6770468,15.2434143 L15.4222676,22.4139381 C15.2751054,22.6433905 15.0799793,22.7578429 14.8357991,22.7578429 C14.6401279,22.7578429 14.4809748,22.6877476 14.3588847,22.5486524 C14.2367946,22.4101048 14.1757495,22.2589619 14.1757495,22.0946762 C14.1757495,21.9314857 14.2324342,21.7672 14.3468937,21.6034619 L19.8458532,14.089581 L14.3223667,6.57515238 C14.2079072,6.44427143 14.1512225,6.2969619 14.1512225,6.13267619 C14.1512225,5.93608095 14.2280739,5.76467619 14.3834117,5.61681905 C14.5382045,5.46950952 14.713164,5.39612857 14.9088351,5.39612857 C15.1535604,5.39612857 15.3568622,5.4947 15.5198306,5.69074762 L20.7746099,12.8859143 L26.0048622,5.71539048 C26.184182,5.50291429 26.3798532,5.39612857 26.5918757,5.39612857 C26.7875468,5.39612857 26.9543306,5.4574619 27.0927721,5.58067619 C27.2312135,5.70279524 27.3004342,5.85448571 27.3004342,6.03465238 C27.3004342,6.16608095 27.2432045,6.32105714 27.1292901,6.50122381 L21.6303306,14.0402952 L27.1292901,21.5547238 Z" id="Fill-4" fill="#FFFFFF"></path>
                <path d="M37.8343018,13.9663667 C38.4044189,13.917081 38.9347477,13.7292476 39.4231081,13.4017714 C39.9120135,13.0742952 40.3028108,12.6323667 40.596045,12.0754381 C40.8898243,11.5196048 41.0364414,10.8805333 41.0364414,10.1598667 C41.0364414,9.22672381 40.7224955,8.45348571 40.0951486,7.83960476 C39.4678018,7.22572381 38.6491441,6.91905714 37.6386306,6.91905714 L31.968527,6.91905714 L31.968527,13.9663667 L37.8343018,13.9663667 Z M43.2847523,21.9473667 C43.2847523,22.0295095 43.2520495,22.1357476 43.1871892,22.2666286 C43.1217838,22.381081 43.0323964,22.4714381 42.9179369,22.5366048 C42.8040225,22.602319 42.6819324,22.6351762 42.5516667,22.6351762 C42.3886982,22.6351762 42.2502568,22.602319 42.1363423,22.5366048 C41.6801396,22.2748429 41.3133243,21.8493429 41.0364414,21.2595571 C40.7590135,20.670319 40.6211171,19.7295095 40.6211171,18.4360333 C40.6211171,17.2898667 40.3028108,16.4837714 39.6678333,16.0172 C39.0323108,15.5506286 38.2746982,15.3167952 37.3944505,15.3167952 L31.968527,15.3167952 L31.968527,21.9227238 C31.968527,22.1357476 31.9031216,22.312081 31.7728559,22.4506286 C31.6425901,22.5902714 31.4714459,22.659819 31.2594234,22.659819 C31.0315946,22.659819 30.8359234,22.5902714 30.6735,22.4506286 C30.5099865,22.312081 30.4287748,22.1357476 30.4287748,21.9227238 L30.4287748,6.20660476 C30.4287748,5.99358095 30.4979955,5.81779524 30.6364369,5.6787 C30.7748784,5.53960476 30.9503829,5.46950952 31.1618604,5.46950952 L37.7612658,5.46950952 C38.6900225,5.46950952 39.5206712,5.67048571 40.2537568,6.07134286 C40.9873874,6.47274762 41.5613198,7.02529524 41.9771892,7.72898571 C42.3930586,8.43322381 42.6007207,9.22672381 42.6007207,10.110581 C42.6007207,11.1587238 42.3276532,12.079819 41.7820631,12.8738667 C41.2353829,13.6679143 40.523009,14.2122476 39.6427613,14.5068667 C40.3600405,14.7856048 40.946509,15.2554619 41.4027117,15.9186286 C41.8589144,16.5817952 42.095464,17.3884381 42.1118153,18.3374619 C42.1276216,19.3527476 42.1973874,20.0646524 42.3194775,20.4742714 C42.4421126,20.8833429 42.6410541,21.1697476 42.9179369,21.3334857 C43.1626622,21.4972238 43.2847523,21.7014857 43.2847523,21.9473667 L43.2847523,21.9473667 Z" id="Fill-6" fill="#FFFFFF"></path>
                <path d="M48.5763221,12.2226929 C47.7702005,12.8781929 47.2524077,13.8190024 47.0240338,15.0467643 L55.3588626,15.0467643 L55.3588626,14.850169 C55.2771059,14.1136214 55.0329257,13.4712643 54.625777,12.9230976 C54.2180833,12.3743833 53.7090113,11.9570976 53.0980158,11.6701452 C52.4870203,11.3837405 51.8553131,11.2408119 51.2039842,11.2408119 C50.2583311,11.2408119 49.3829887,11.5682881 48.5763221,12.2226929 M56.6538896,16.1639071 C56.5072725,16.30355 56.3366734,16.3730976 56.1410023,16.3730976 L46.9019437,16.3730976 C46.9019437,17.3555262 47.1014302,18.2350024 47.5009482,19.0126214 C47.8999212,19.7902405 48.4700383,20.4041214 49.2123896,20.8542643 C49.9531059,21.3049548 50.8289932,21.5300262 51.8389617,21.5300262 C52.6216464,21.5300262 53.3220293,21.3662881 53.9412005,21.0388119 C54.5603716,20.7113357 55.0569077,20.29405 55.4318986,19.7864071 C55.6112185,19.63855 55.7823626,19.565169 55.9453311,19.565169 C56.1082995,19.565169 56.2549167,19.6308833 56.3851824,19.7617643 C56.5154482,19.8931929 56.5808536,20.0405024 56.5808536,20.2036929 C56.5808536,20.3844071 56.4990968,20.5558119 56.3366734,20.71955 C55.8145203,21.3580738 55.1593761,21.8821452 54.3690608,22.2912167 C53.5782005,22.7002881 52.7437365,22.9050976 51.8640338,22.9050976 C50.608795,22.9050976 49.5007185,22.6351214 48.5398041,22.0946214 C47.5777995,21.554669 46.8289077,20.7973119 46.2909482,19.8230976 C45.7535338,18.849431 45.4842815,17.7235262 45.4842815,16.4464786 C45.4842815,15.1042643 45.7491734,13.9296214 46.2789572,12.9230976 C46.8081959,11.9160262 47.5129392,11.1466214 48.3931869,10.6143357 C49.2728896,10.0825976 50.2098221,9.81645476 51.2039842,9.81645476 C52.18125,9.81645476 53.0980158,10.0459071 53.9537365,10.5037167 C54.8089122,10.9626214 55.5054797,11.6334548 56.0428941,12.5178595 C56.5808536,13.4017167 56.8577365,14.4493119 56.8746329,15.6606452 C56.8746329,15.8572405 56.8010518,16.0253595 56.6538896,16.1639071" id="Fill-8" fill="#FFFFFF"></path>
                <path d="M62.3488473,11.5352667 L62.3488473,19.7616 C62.3488473,20.3842429 62.4627617,20.8059095 62.6911356,21.0266 C62.9189644,21.2472905 63.2209194,21.3579095 63.5959104,21.3579095 C63.6934734,21.3579095 63.8155635,21.3376476 63.9621806,21.2965762 C64.1087977,21.2560524 64.2227122,21.2352429 64.3039239,21.2352429 C64.451086,21.2352429 64.5769914,21.2965762 64.6832752,21.4192429 C64.789014,21.5419095 64.8418833,21.6859333 64.8418833,21.8491238 C64.8418833,22.0785762 64.7116176,22.2707905 64.451086,22.4263143 C64.1900095,22.5818381 63.8804239,22.6596 63.5223293,22.6596 C63.0824779,22.6596 62.6911356,22.6190762 62.3488473,22.5369333 C62.0071041,22.4547905 61.6773518,22.2094571 61.3595905,21.7998381 C61.0412842,21.3913143 60.8826761,20.7358143 60.8826761,19.8355286 L60.8826761,11.5352667 L59.0987437,11.5352667 C58.9030725,11.5352667 58.7357437,11.4701 58.5973023,11.3386714 C58.4588608,11.2077905 58.3896401,11.0446 58.3896401,10.8480048 C58.3896401,10.6514095 58.4588608,10.4876714 58.5973023,10.3567905 C58.7357437,10.2259095 58.9030725,10.1601952 59.0987437,10.1601952 L60.8826761,10.1601952 L60.8826761,7.43469524 C60.8826761,7.22167143 60.9518968,7.04588571 61.0903383,6.90624286 C61.2282347,6.76769524 61.4037392,6.6976 61.6157617,6.6976 C61.8272392,6.6976 62.0027437,6.76769524 62.1417302,6.90624286 C62.2796266,7.04588571 62.3488473,7.22167143 62.3488473,7.43469524 L62.3488473,10.1601952 L64.7933743,10.1601952 C64.9721491,10.1601952 65.1313023,10.2341238 65.2697437,10.3814333 C65.4081851,10.5287429 65.4774059,10.692481 65.4774059,10.8721 C65.4774059,11.0686952 65.4125455,11.2286 65.2822797,11.3512667 C65.1514689,11.4739333 64.9890455,11.5352667 64.7933743,11.5352667 L62.3488473,11.5352667 Z" id="Fill-10" fill="#FFFFFF"></path>
                <g id="Group-14" transform="translate(67.040541, 9.762295)">
                    <mask id="mask-4" fill="white">
                        <use xlink:href="#path-3"></use>
                    </mask>
                    <g id="Clip-13"></g>
                    <path d="M8.4942545,11.0920786 C9.17065541,10.6419357 9.69989414,10.0198405 10.0830608,9.22579286 C10.4656824,8.43229286 10.6575383,7.54405476 10.6575383,6.56162619 C10.6575383,5.61205476 10.4656824,4.74462619 10.0830608,3.95879286 C9.69989414,3.17295952 9.17065541,2.55524524 8.4942545,2.10455476 C7.8178536,1.6544119 7.05588063,1.42879286 6.20888063,1.42879286 C5.36133559,1.42879286 4.59990766,1.65057857 3.9240518,2.09195952 C3.2476509,2.53443571 2.71786712,3.14448333 2.3352455,3.92155476 C1.95207883,4.69972143 1.76076802,5.57919762 1.76076802,6.56162619 C1.76076802,7.54405476 1.94771847,8.43229286 2.3232545,9.22579286 C2.69770045,10.0198405 3.22312387,10.6419357 3.89952477,11.0920786 C4.57538063,11.542769 5.34552928,11.7672929 6.20888063,11.7672929 C7.05588063,11.7672929 7.8178536,11.542769 8.4942545,11.0920786 M11.8184842,0.57012619 C11.9569257,0.717435714 12.0261464,0.897602381 12.0261464,1.10953095 L12.0261464,12.1604833 C12.0261464,12.3735071 11.9569257,12.5498405 11.8184842,12.6883881 C11.6794977,12.828031 11.5045383,12.897031 11.2925158,12.897031 C11.0810383,12.897031 10.9055338,12.828031 10.7676374,12.6883881 C10.6291959,12.5498405 10.5599752,12.3735071 10.5599752,12.1604833 L10.5599752,10.5154357 C10.1522815,11.2519833 9.54128604,11.8740786 8.72644369,12.3811738 C7.91160135,12.8888167 7.02372297,13.1429119 6.06226351,13.1429119 C4.97053829,13.1429119 3.98891216,12.8565071 3.11738514,12.28315 C2.24531306,11.7103405 1.56128153,10.9245071 1.06420045,9.92565 C0.567119369,8.92734048 0.318578829,7.80636429 0.318578829,6.56162619 C0.318578829,5.31798333 0.570934685,4.20029286 1.07673649,3.20910238 C1.58090315,2.21955476 2.27038514,1.44576905 3.14191216,0.888840476 C4.01289414,0.333007143 4.97871396,0.0542690476 6.03828153,0.0542690476 C7.0155473,0.0542690476 7.91160135,0.291388095 8.72644369,0.766721429 C9.54128604,1.24150714 10.1522815,1.86305476 10.5599752,2.63245952 L10.5599752,1.10953095 C10.5599752,0.897602381 10.6291959,0.717435714 10.7676374,0.57012619 C10.9055338,0.422269048 11.0810383,0.348340476 11.2925158,0.348340476 C11.5045383,0.348340476 11.6794977,0.422269048 11.8184842,0.57012619" id="Fill-12" fill="#FFFFFF" mask="url(#mask-4)"></path>
                </g>
                <path d="M84.1136405,22.4507381 C83.9751991,22.590381 83.7991495,22.659381 83.5882171,22.659381 C83.3756495,22.659381 83.2006901,22.590381 83.0622486,22.4507381 C82.9238072,22.3121905 82.8545865,22.1358571 82.8545865,21.9228333 L82.8545865,10.6265476 C82.8545865,10.4140714 82.9238072,10.2382857 83.0622486,10.0986429 C83.2006901,9.96009524 83.3756495,9.89 83.5882171,9.89 C83.7991495,9.89 83.9751991,9.96009524 84.1136405,10.0986429 C84.2515369,10.2382857 84.3213027,10.4140714 84.3213027,10.6265476 L84.3213027,21.9228333 C84.3213027,22.1358571 84.2515369,22.3121905 84.1136405,22.4507381 M82.8306045,8.01111905 C82.6507396,7.85614286 82.5613523,7.63107143 82.5613523,7.33645238 L82.5613523,7.09057143 C82.5613523,6.79595238 82.6551,6.57088095 82.8425955,6.41535714 C83.0295459,6.26038095 83.2862622,6.18207143 83.6121991,6.18207143 C84.2635279,6.18207143 84.590555,6.48545238 84.590555,7.09057143 L84.590555,7.33645238 C84.590555,7.63107143 84.5044378,7.85614286 84.3332937,8.01111905 C84.1621495,8.16719048 83.913609,8.24495238 83.5882171,8.24495238 C83.2622802,8.24495238 83.0093793,8.16719048 82.8306045,8.01111905" id="Fill-15" fill="#FFFFFF"></path>
                <path d="M89.5393459,22.4507381 C89.4003595,22.590381 89.224855,22.659381 89.0139225,22.659381 C88.801355,22.659381 88.6263955,22.590381 88.4879541,22.4507381 C88.3495126,22.3121905 88.2802919,22.1358571 88.2802919,21.9228333 L88.2802919,5.22428571 C88.2802919,5.01180952 88.3495126,4.83547619 88.4879541,4.69638095 C88.6263955,4.55728571 88.801355,4.4877381 89.0139225,4.4877381 C89.224855,4.4877381 89.4003595,4.55728571 89.5393459,4.69638095 C89.6772423,4.83547619 89.7470081,5.01180952 89.7470081,5.22428571 L89.7470081,21.9228333 C89.7470081,22.1358571 89.6772423,22.3121905 89.5393459,22.4507381" id="Fill-17" fill="#FFFFFF"></path>
                <path d="M89.5585315,0.13685 L93.6245676,0.13685 C94.2284775,0.13685 94.7533559,0.552492857 94.8945225,1.14227857 L98.2405541,14.435731 C98.4269595,15.21335 99.1191667,15.7615167 99.9149324,15.7615167 L116.854932,15.7615167 C117.598919,15.7615167 118.258423,15.2812548 118.491158,14.5715405 L120.673518,6.56425476 C121.043604,5.6886119 120.403721,4.71823095 119.457523,4.71823095 L110.933018,4.71823095" id="Stroke-19" stroke="#FFFFFF" stroke-width="2.5" stroke-linecap="round"></path>
                <g id="Group-23" transform="translate(113.369369, 17.976581)">
                    <mask id="mask-6" fill="white">
                        <use xlink:href="#path-5"></use>
                    </mask>
                    <g id="Clip-22"></g>
                    <path d="M0.195344144,2.64949048 C0.195344144,3.90791905 1.21076306,4.92868095 2.46382162,4.92868095 C3.71633514,4.92868095 4.7322991,3.90791905 4.7322991,2.64949048 C4.7322991,1.39051429 3.71633514,0.3703 2.46382162,0.3703 C1.21076306,0.3703 0.195344144,1.39051429 0.195344144,2.64949048" id="Fill-21" fill="#FFFFFF" mask="url(#mask-6)"></path>
                </g>
                <g id="Group-26" transform="translate(98.653153, 17.976581)">
                    <mask id="mask-8" fill="white">
                        <use xlink:href="#path-7"></use>
                    </mask>
                    <g id="Clip-25"></g>
                    <path d="M0.253609459,2.64949048 C0.253609459,3.90791905 1.26957342,4.92868095 2.52208694,4.92868095 C3.7751455,4.92868095 4.79056441,3.90791905 4.79056441,2.64949048 C4.79056441,1.39051429 3.7751455,0.3703 2.52208694,0.3703 C1.26957342,0.3703 0.253609459,1.39051429 0.253609459,2.64949048" id="Fill-24" fill="#FFFFFF" mask="url(#mask-8)"></path>
                </g>
            </g>
        </g>
    </g>
</svg>