<?xml version="1.0" encoding="UTF-8"?>
<svg width="118px" height="24px" viewBox="0 0 118 24" version="1.1" xmlns="http://www.w3.org/2000/svg" xmlns:xlink="http://www.w3.org/1999/xlink">
    <title>BXRetail/Logo</title>
    <defs>
        <polygon id="path-1" points="0 0.0843857143 11.9793667 0.0843857143 11.9793667 16.5267667 0 16.5267667"></polygon>
        <polygon id="path-3" points="0.306166667 0.0519095238 11.5575952 0.0519095238 11.5575952 12.5714286 0.306166667 12.5714286"></polygon>
        <polygon id="path-5" points="0.187733333 0.3542 4.54792381 0.3542 4.54792381 4.71428571 0.187733333 4.71428571"></polygon>
        <polygon id="path-7" points="0.243728571 0.3542 4.60391905 0.3542 4.60391905 4.71428571 0.243728571 4.71428571"></polygon>
    </defs>
    <g id="Scenario-1" stroke="none" stroke-width="1" fill="none" fill-rule="evenodd">
        <g id="Desktop-/-Scenario-1-/-Screen-2" transform="translate(-662.000000, -128.000000)">
            <g id="Group-27" transform="translate(662.000000, 130.000000)">
                <g id="Group-3" transform="translate(0.000000, 5.147371)">
                    <mask id="mask-2" fill="white">
                        <use xlink:href="#path-1"></use>
                    </mask>
                    <g id="Clip-2"></g>
                    <path d="M9.50122381,14.342481 C10.1507476,13.8102905 10.4760333,13.011481 10.4760333,11.9465762 C10.4760333,10.8507667 10.1434143,10.0435762 9.47817619,9.5271 C8.81189048,9.0101 7.95441429,8.7518619 6.90574762,8.7518619 L1.50317619,8.7518619 L1.50317619,15.1412905 L6.95289048,15.1412905 C8.00155714,15.1412905 8.85117619,14.8751952 9.50122381,14.342481 M8.86689048,2.21052857 C8.35774762,1.7171 7.64903333,1.47090952 6.74127143,1.47090952 L1.50317619,1.47090952 L1.50317619,7.34281429 L6.74127143,7.34281429 C7.58722381,7.3271 8.2797,7.05314762 8.81974762,6.52043333 C9.36031905,5.98824286 9.63060476,5.22871905 9.63060476,4.24238571 C9.63060476,3.38124286 9.37603333,2.70343333 8.86689048,2.21052857 M11.0867952,9.19814762 C11.6818429,9.90319524 11.9793667,10.8188143 11.9793667,11.9465762 C11.9793667,13.4813381 11.505319,14.6279571 10.5582714,15.387481 C9.6107,16.1475286 8.43265238,16.5267667 7.02308095,16.5267667 L0.704890476,16.5267667 C0.501128571,16.5267667 0.332461905,16.4607667 0.199414286,16.3271952 C0.0663666667,16.1946714 -0.000157142857,16.0260048 -0.000157142857,15.8222429 L-0.000157142857,0.789433333 C-0.000157142857,0.585671429 0.0663666667,0.417528571 0.199414286,0.284480952 C0.332461905,0.151433333 0.501128571,0.0843857143 0.704890476,0.0843857143 L6.92879524,0.0843857143 C8.24460476,0.0843857143 9.27389048,0.444766667 10.0182238,1.16500476 C10.7615095,1.88524286 11.1339381,2.8721 11.1339381,4.12452857 C11.1339381,4.95476667 10.9301762,5.69857619 10.5231762,6.35648095 C10.1156524,7.0138619 9.53631905,7.49157619 8.78465238,7.7891 C9.72436667,8.02376667 10.4917476,8.49362381 11.0867952,9.19814762" id="Fill-1" fill="#262626" mask="url(#mask-2)"></path>
                </g>
                <path d="M26.0723048,20.6175619 C26.181781,20.774181 26.236781,20.9150857 26.236781,21.0402762 C26.236781,21.2597524 26.1624,21.4357524 26.0141619,21.5682762 C25.8648762,21.7013238 25.6967333,21.7683714 25.5086857,21.7683714 C25.274019,21.7683714 25.0859714,21.6662286 24.9450667,21.4629905 L19.8714476,14.5806571 L14.8214,21.439419 C14.6799714,21.6588952 14.4924476,21.7683714 14.257781,21.7683714 C14.0697333,21.7683714 13.916781,21.7013238 13.7994476,21.5682762 C13.6821143,21.4357524 13.6234476,21.291181 13.6234476,21.1340381 C13.6234476,20.9779429 13.6779238,20.8208 13.7879238,20.664181 L19.0726381,13.4769905 L13.7643524,6.28927619 C13.6543524,6.16408571 13.5998762,6.02318095 13.5998762,5.8660381 C13.5998762,5.67799048 13.6737333,5.5140381 13.823019,5.37260952 C13.971781,5.23170476 14.1399238,5.16151429 14.3279714,5.16151429 C14.5631619,5.16151429 14.7585429,5.2558 14.9151619,5.44332381 L19.9652095,12.3256571 L24.9916857,5.46689524 C25.164019,5.26365714 25.3520667,5.16151429 25.5558286,5.16151429 C25.7438762,5.16151429 25.9041619,5.22018095 26.0372095,5.3380381 C26.1702571,5.45484762 26.236781,5.59994286 26.236781,5.77227619 C26.236781,5.89799048 26.181781,6.04622857 26.0723048,6.2185619 L20.7875905,13.4298476 L26.0723048,20.6175619 Z" id="Fill-4" fill="#262626"></path>
                <path d="M36.3602381,13.3591333 C36.9081429,13.3119905 37.4178095,13.1323238 37.8871429,12.8190857 C38.357,12.5058476 38.7325714,12.0831333 39.014381,11.550419 C39.2967143,11.0187524 39.437619,10.4074667 39.437619,9.71813333 C39.437619,8.8255619 39.1359048,8.08594286 38.533,7.49875238 C37.9300952,6.9115619 37.1433333,6.61822857 36.1721905,6.61822857 L30.723,6.61822857 L30.723,13.3591333 L36.3602381,13.3591333 Z M41.5983333,20.9931333 C41.5983333,21.0717048 41.5669048,21.1733238 41.5045714,21.2985143 C41.4417143,21.4079905 41.3558095,21.494419 41.2458095,21.5567524 C41.1363333,21.6196095 41.019,21.6510381 40.8938095,21.6510381 C40.7371905,21.6510381 40.6041429,21.6196095 40.4946667,21.5567524 C40.0562381,21.3063714 39.7037143,20.8993714 39.437619,20.3352286 C39.171,19.7716095 39.0384762,18.8717048 39.0384762,17.6344667 C39.0384762,16.5381333 38.7325714,15.7670857 38.1223333,15.3208 C37.5115714,14.8745143 36.7834762,14.6508476 35.9375238,14.6508476 L30.723,14.6508476 L30.723,20.9695619 C30.723,21.1733238 30.6601429,21.3419905 30.5349524,21.4745143 C30.4097619,21.6080857 30.2452857,21.6746095 30.0415238,21.6746095 C29.8225714,21.6746095 29.6345238,21.6080857 29.4784286,21.4745143 C29.3212857,21.3419905 29.2432381,21.1733238 29.2432381,20.9695619 L29.2432381,5.93675238 C29.2432381,5.73299048 29.3097619,5.56484762 29.4428095,5.4318 C29.5758571,5.29875238 29.7445238,5.23170476 29.9477619,5.23170476 L36.2900476,5.23170476 C37.182619,5.23170476 37.9809048,5.42394286 38.6854286,5.80737143 C39.3904762,6.19132381 39.9420476,6.71984762 40.3417143,7.39294286 C40.741381,8.0665619 40.9409524,8.8255619 40.9409524,9.67099048 C40.9409524,10.6735619 40.6785238,11.5546095 40.1541905,12.3141333 C39.6288095,13.0736571 38.9441905,13.5943238 38.0982381,13.8761333 C38.7875714,14.1427524 39.3511905,14.592181 39.789619,15.2265143 C40.2280476,15.8608476 40.455381,16.632419 40.4710952,17.540181 C40.4862857,18.5113238 40.5533333,19.1922762 40.6706667,19.5840857 C40.7885238,19.9753714 40.9797143,20.2493238 41.2458095,20.4059429 C41.481,20.5625619 41.5983333,20.7579429 41.5983333,20.9931333 L41.5983333,20.9931333 Z" id="Fill-6" fill="#262626"></path>
                <path d="M46.6837381,11.6912714 C45.9090238,12.3182714 45.4114048,13.2181762 45.1919286,14.3925571 L53.2020238,14.3925571 L53.2020238,14.2045095 C53.1234524,13.4999857 52.8887857,12.8855571 52.4975,12.3612238 C52.1056905,11.8363667 51.6164524,11.4372238 51.0292619,11.1627476 C50.4420714,10.8887952 49.8349762,10.752081 49.2090238,10.752081 C48.3002143,10.752081 47.4589762,11.065319 46.6837381,11.6912714 M54.4465952,15.4611286 C54.3056905,15.5947 54.1417381,15.6612238 53.9536905,15.6612238 L45.0745952,15.6612238 C45.0745952,16.6009381 45.2663095,17.4421762 45.6502619,18.1859857 C46.0336905,18.9297952 46.5815952,19.5169857 47.2950238,19.9475571 C48.006881,20.3786524 48.8486429,20.5939381 49.8192619,20.5939381 C50.5714524,20.5939381 51.2445476,20.437319 51.8395952,20.124081 C52.4346429,19.8108429 52.9118333,19.4117 53.2722143,18.9261286 C53.4445476,18.7847 53.6090238,18.7145095 53.7656429,18.7145095 C53.9222619,18.7145095 54.0631667,18.7773667 54.1883571,18.9025571 C54.3135476,19.0282714 54.3764048,19.1691762 54.3764048,19.3252714 C54.3764048,19.4981286 54.2978333,19.662081 54.1417381,19.8187 C53.6399286,20.4294619 53.0103095,20.9307476 52.2507857,21.3220333 C51.4907381,21.713319 50.6887857,21.9092238 49.8433571,21.9092238 C48.6370238,21.9092238 47.572119,21.6509857 46.6486429,21.1339857 C45.724119,20.6175095 45.0044048,19.893081 44.4874048,18.9612238 C43.9709286,18.0298905 43.7121667,16.9529381 43.7121667,15.7314143 C43.7121667,14.4475571 43.9667381,13.3239857 44.475881,12.3612238 C44.9845,11.3979381 45.6617857,10.6619857 46.5077381,10.1528429 C47.3531667,9.64422381 48.2535952,9.38965238 49.2090238,9.38965238 C50.1482143,9.38965238 51.0292619,9.60912857 51.8516429,10.0470333 C52.6735,10.4859857 53.3429286,11.1276524 53.8594048,11.9736048 C54.3764048,12.8190333 54.6425,13.821081 54.6587381,14.9797476 C54.6587381,15.1677952 54.5880238,15.3286048 54.4465952,15.4611286" id="Fill-8" fill="#262626"></path>
                <path d="M59.9196714,11.0337333 L59.9196714,18.9024 C59.9196714,19.4979714 60.0291476,19.9013048 60.2486238,20.1124 C60.4675762,20.3234952 60.7577667,20.4293048 61.1181476,20.4293048 C61.2119095,20.4293048 61.3292429,20.4099238 61.4701476,20.3706381 C61.6110524,20.3318762 61.7205286,20.3119714 61.7985762,20.3119714 C61.9400048,20.3119714 62.0610048,20.3706381 62.1631476,20.4879714 C62.2647667,20.6053048 62.3155762,20.7430667 62.3155762,20.8991619 C62.3155762,21.1186381 62.1903857,21.3024952 61.9400048,21.4512571 C61.6891,21.600019 61.3915762,21.6744 61.0474333,21.6744 C60.624719,21.6744 60.2486238,21.6356381 59.9196714,21.5570667 C59.5912429,21.4784952 59.2743381,21.2438286 58.9689571,20.852019 C58.6630524,20.4612571 58.5106238,19.8342571 58.5106238,18.9731143 L58.5106238,11.0337333 L56.7961952,11.0337333 C56.6081476,11.0337333 56.4473381,10.9714 56.3142905,10.8456857 C56.1812429,10.7204952 56.114719,10.5644 56.114719,10.3763524 C56.114719,10.1883048 56.1812429,10.0316857 56.3142905,9.90649524 C56.4473381,9.78130476 56.6081476,9.71844762 56.7961952,9.71844762 L58.5106238,9.71844762 L58.5106238,7.11144762 C58.5106238,6.90768571 58.5771476,6.73954286 58.7101952,6.60597143 C58.842719,6.47344762 59.0113857,6.4064 59.2151476,6.4064 C59.4183857,6.4064 59.5870524,6.47344762 59.7206238,6.60597143 C59.8531476,6.73954286 59.9196714,6.90768571 59.9196714,7.11144762 L59.9196714,9.71844762 L62.2689571,9.71844762 C62.4407667,9.71844762 62.593719,9.7891619 62.7267667,9.93006667 C62.8598143,10.0709714 62.9263381,10.2275905 62.9263381,10.3994 C62.9263381,10.5874476 62.8640048,10.7404 62.7388143,10.8577333 C62.6131,10.9750667 62.4570048,11.0337333 62.2689571,11.0337333 L59.9196714,11.0337333 Z" id="Fill-10" fill="#262626"></path>
                <g id="Group-14" transform="translate(64.428571, 9.337848)">
                    <mask id="mask-4" fill="white">
                        <use xlink:href="#path-3"></use>
                    </mask>
                    <g id="Clip-13"></g>
                    <path d="M8.16330952,10.6098143 C8.81335714,10.1792429 9.32197619,9.58419524 9.69021429,8.82467143 C10.0579286,8.06567143 10.2423095,7.21605238 10.2423095,6.2763381 C10.2423095,5.36805238 10.0579286,4.5383381 9.69021429,3.78667143 C9.32197619,3.03500476 8.81335714,2.44414762 8.16330952,2.01305238 C7.5132619,1.58248095 6.78097619,1.36667143 5.96697619,1.36667143 C5.15245238,1.36667143 4.42069048,1.57881429 3.77116667,2.00100476 C3.12111905,2.42424286 2.61197619,3.00776667 2.2442619,3.75105238 C1.87602381,4.49538571 1.69216667,5.33662381 1.69216667,6.2763381 C1.69216667,7.21605238 1.87183333,8.06567143 2.2327381,8.82467143 C2.59259524,9.58419524 3.09754762,10.1792429 3.74759524,10.6098143 C4.39711905,11.0409095 5.1372619,11.2556714 5.96697619,11.2556714 C6.78097619,11.2556714 7.5132619,11.0409095 8.16330952,10.6098143 M11.3580238,0.545338095 C11.4910714,0.686242857 11.5575952,0.85857619 11.5575952,1.06129048 L11.5575952,11.6317667 C11.5575952,11.8355286 11.4910714,12.0041952 11.3580238,12.136719 C11.2244524,12.2702905 11.0563095,12.3362905 10.8525476,12.3362905 C10.6493095,12.3362905 10.4806429,12.2702905 10.348119,12.136719 C10.2150714,12.0041952 10.1485476,11.8355286 10.1485476,11.6317667 L10.1485476,10.0582429 C9.7567381,10.7627667 9.16954762,11.3578143 8.38645238,11.8428619 C7.60335714,12.3284333 6.75007143,12.571481 5.82607143,12.571481 C4.77688095,12.571481 3.8335,12.2975286 2.99592857,11.7491 C2.15783333,11.2011952 1.50045238,10.4495286 1.0227381,9.4941 C0.54502381,8.53919524 0.306166667,7.46695714 0.306166667,6.2763381 C0.306166667,5.08676667 0.548690476,4.01767143 1.03478571,3.06957619 C1.51930952,2.12305238 2.18192857,1.38290952 3.0195,0.850195238 C3.85654762,0.318528571 4.7847381,0.0519095238 5.80302381,0.0519095238 C6.74221429,0.0519095238 7.60335714,0.278719048 8.38645238,0.733385714 C9.16954762,1.18752857 9.7567381,1.78205238 10.1485476,2.51800476 L10.1485476,1.06129048 C10.1485476,0.85857619 10.2150714,0.686242857 10.348119,0.545338095 C10.4806429,0.403909524 10.6493095,0.333195238 10.8525476,0.333195238 C11.0563095,0.333195238 11.2244524,0.403909524 11.3580238,0.545338095" id="Fill-12" fill="#262626" mask="url(#mask-4)"></path>
                </g>
                <path d="M80.8364857,21.474619 C80.7034381,21.6081905 80.5342476,21.6741905 80.3315333,21.6741905 C80.1272476,21.6741905 79.9591048,21.6081905 79.8260571,21.474619 C79.6930095,21.3420952 79.6264857,21.1734286 79.6264857,20.9696667 L79.6264857,10.1645238 C79.6264857,9.96128571 79.6930095,9.79314286 79.8260571,9.65957143 C79.9591048,9.52704762 80.1272476,9.46 80.3315333,9.46 C80.5342476,9.46 80.7034381,9.52704762 80.8364857,9.65957143 C80.9690095,9.79314286 81.0360571,9.96128571 81.0360571,10.1645238 L81.0360571,20.9696667 C81.0360571,21.1734286 80.9690095,21.3420952 80.8364857,21.474619 M79.6034381,7.66280952 C79.430581,7.51457143 79.3446762,7.29928571 79.3446762,7.01747619 L79.3446762,6.78228571 C79.3446762,6.50047619 79.4347714,6.28519048 79.6149619,6.13642857 C79.7946286,5.98819048 80.0413429,5.91328571 80.354581,5.91328571 C80.9805333,5.91328571 81.294819,6.20347619 81.294819,6.78228571 L81.294819,7.01747619 C81.294819,7.29928571 81.2120571,7.51457143 81.047581,7.66280952 C80.8831048,7.81209524 80.6442476,7.88647619 80.3315333,7.88647619 C80.0182952,7.88647619 79.7752476,7.81209524 79.6034381,7.66280952" id="Fill-15" fill="#262626"></path>
                <path d="M86.0508,21.474619 C85.9172286,21.6081905 85.7485619,21.6741905 85.5458476,21.6741905 C85.3415619,21.6741905 85.173419,21.6081905 85.0403714,21.474619 C84.9073238,21.3420952 84.8408,21.1734286 84.8408,20.9696667 L84.8408,4.99714286 C84.8408,4.79390476 84.9073238,4.6252381 85.0403714,4.49219048 C85.173419,4.35914286 85.3415619,4.29261905 85.5458476,4.29261905 C85.7485619,4.29261905 85.9172286,4.35914286 86.0508,4.49219048 C86.1833238,4.6252381 86.2503714,4.79390476 86.2503714,4.99714286 L86.2503714,20.9696667 C86.2503714,21.1734286 86.1833238,21.3420952 86.0508,21.474619" id="Fill-17" fill="#262626"></path>
                <path d="M86.0692381,0.1309 L89.9768571,0.1309 C90.5572381,0.1309 91.0616667,0.528471429 91.1973333,1.09261429 L94.413,13.8080905 C94.5921429,14.5519 95.257381,15.0762333 96.0221429,15.0762333 L112.302143,15.0762333 C113.017143,15.0762333 113.650952,14.6168524 113.874619,13.9379952 L115.971952,6.27885238 C116.327619,5.44128095 115.712667,4.51309048 114.803333,4.51309048 L106.610952,4.51309048" id="Stroke-19" stroke="#262626" stroke-width="2.5" stroke-linecap="round"></path>
                <g id="Group-23" transform="translate(108.952381, 17.194990)">
                    <mask id="mask-6" fill="white">
                        <use xlink:href="#path-5"></use>
                    </mask>
                    <g id="Clip-22"></g>
                    <path d="M0.187733333,2.53429524 C0.187733333,3.73800952 1.16359048,4.71439048 2.36782857,4.71439048 C3.57154286,4.71439048 4.54792381,3.73800952 4.54792381,2.53429524 C4.54792381,1.33005714 3.57154286,0.3542 2.36782857,0.3542 C1.16359048,0.3542 0.187733333,1.33005714 0.187733333,2.53429524" id="Fill-21" fill="#262626" mask="url(#mask-6)"></path>
                </g>
                <g id="Group-26" transform="translate(94.809524, 17.194990)">
                    <mask id="mask-8" fill="white">
                        <use xlink:href="#path-7"></use>
                    </mask>
                    <g id="Clip-25"></g>
                    <path d="M0.243728571,2.53429524 C0.243728571,3.73800952 1.22010952,4.71439048 2.42382381,4.71439048 C3.6280619,4.71439048 4.60391905,3.73800952 4.60391905,2.53429524 C4.60391905,1.33005714 3.6280619,0.3542 2.42382381,0.3542 C1.22010952,0.3542 0.243728571,1.33005714 0.243728571,2.53429524" id="Fill-24" fill="#262626" mask="url(#mask-8)"></path>
                </g>
            </g>
        </g>
    </g>
</svg>