<?xml version="1.0" encoding="UTF-8"?>
<svg width="107px" height="34px" viewBox="0 0 107 34" version="1.1" xmlns="http://www.w3.org/2000/svg" xmlns:xlink="http://www.w3.org/1999/xlink">
    <title>Group 6</title>
    <g id="Symbols" stroke="none" stroke-width="1" fill="none" fill-rule="evenodd">
        <g id="Desktop/Hero-Band" transform="translate(-833.000000, -39.000000)">
            <g id="Group-6" transform="translate(833.000000, 41.000000)">
                <text id="BXClothes" font-family="Helvetica" font-size="16" font-weight="normal" fill="#262626">
                    <tspan x="0" y="18">BXClothes</tspan>
                </text>
                <g id="Group-2" transform="translate(89.000000, 15.000000) scale(-1, 1) translate(-89.000000, -15.000000) translate(73.000000, 0.000000)">
                    <path d="M32,5.91113281 C31,4.6567662 29.8359787,2.67176103 27.4530199,0 L16.6530609,5.46666614 L6.49281256,0 C2.16427085,3.64444409 0,8.87060884 0,13.6784943 C0,22.692613 7.45582933,30 16.6530609,30 C23.0071152,30 28.5300056,26.5122149 31.3374144,21.3834465" id="Path" stroke="#262626" stroke-width="2.5"></path>
                    <polyline id="Path-6" stroke="#262626" stroke-width="2.5" points="3 5 12.4789795 13 17 5.59194709"></polyline>
                    <circle id="Oval" fill="#262626" cx="16.5" cy="14.5" r="1.5"></circle>
                    <circle id="Oval-Copy" fill="#262626" cx="16.5" cy="20.5" r="1.5"></circle>
                    <polyline id="Path-6" stroke="#262626" stroke-width="2.5" transform="translate(24.000000, 9.000000) scale(-1, 1) translate(-24.000000, -9.000000) " points="17 5 26.4702439 13 31 5.59194709"></polyline>
                </g>
            </g>
        </g>
    </g>
</svg>